<?xml version="1.0" encoding="utf-8"?>
<!-- Generator: Adobe Illustrator 24.0.2, SVG Export Plug-In . SVG Version: 6.00 Build 0)  -->
<svg version="1.1" id="service-plan" xmlns="http://www.w3.org/2000/svg" xmlns:xlink="http://www.w3.org/1999/xlink" x="0px"
	 y="0px" viewBox="0 0 512 512" style="enable-background:new 0 0 512 512;" xml:space="preserve">
<style type="text/css">
	.st0{fill:none;stroke:#000000;stroke-width:15;stroke-miterlimit:10;}
	.st1{fill:#FFFFFF;stroke:#000000;stroke-width:15;stroke-miterlimit:10;}
	.st2{fill:#F4F6FA;}
	.st3{fill:none;stroke:#000000;stroke-width:10;stroke-miterlimit:10;}
	.st4{fill-rule:evenodd;clip-rule:evenodd;fill:#F4F6FA;}
	.st5{fill-rule:evenodd;clip-rule:evenodd;fill:none;stroke:#000000;stroke-width:10;stroke-miterlimit:10;}
</style>
<path class="st0" d="M484.9,420.5H65.3c-26.3,0-47.8-21.5-47.8-47.8V154.1c0-4.7,3.9-8.6,8.6-8.6h458.8c4.7,0,8.6,3.9,8.6,8.6v257.8
	C493.5,416.6,489.6,420.5,484.9,420.5z"/>
<path class="st1" d="M17.5,371.1L17.5,371.1c0-29.9,29.3-54.3,65-54.3h0c33.1,0,60.6,20.9,64.5,47.7V153.3c0-29.9-29.3-54.3-65-54.3
	h0c-35.7,0-65,24.5-65,54.3v217.6c0,22.1,16.3,41.1,39.3,49.2C33.6,412,17.5,393,17.5,371.1z"/>
<path class="st2" d="M29.4,331.7L29.4,331.7c0-24.1,23.6-43.8,52.5-43.8h0c26.7,0,48.9,16.9,52.1,38.5V156.2
	c0-24.1-23.6-43.8-52.5-43.8h0c-28.9,0-52.5,19.7-52.5,43.8C29,156.2,29.4,349.4,29.4,331.7z"/>
<g id="レイヤー_4">
	<g>
		<line class="st3" x1="178.4" y1="248.7" x2="277.8" y2="248.7"/>
	</g>
	<g>
		<line class="st3" x1="178.8" y1="221.1" x2="278.2" y2="221.1"/>
	</g>
	<g>
		<line class="st3" x1="178.8" y1="276.3" x2="278.2" y2="276.3"/>
	</g>
	<rect x="195.1" y="313.9" class="st4" width="85.6" height="63.5"/>
	<rect x="185.3" y="303.9" class="st5" width="85.6" height="63.5"/>
	<polygon class="st4" points="407.6,286.9 325.4,334.4 407.6,381.9 	"/>
	<polygon class="st5" points="393.3,283.4 311.1,330.8 393.3,378.3 	"/>
	<circle class="st4" cx="399.7" cy="266.9" r="46.2"/>
	<circle class="st5" cx="388.9" cy="260.4" r="46.2"/>
</g>
<g id="レイヤー_2">
</g>
</svg>
