<?xml version="1.0" encoding="utf-8"?>
<!-- Generator: Adobe Illustrator 24.0.2, SVG Export Plug-In . SVG Version: 6.00 Build 0)  -->
<svg version="1.1" id="iconContact" xmlns="http://www.w3.org/2000/svg" xmlns:xlink="http://www.w3.org/1999/xlink" x="0px"
	 y="0px" viewBox="0 0 512 512" style="enable-background:new 0 0 512 512;" xml:space="preserve">
<style type="text/css">
	.st0{fill:#F4F6FA;}
	.st1{fill:#FFFFFF;}
	.st2{fill:none;stroke:#000000;stroke-width:15;stroke-miterlimit:10;}
	.st3{fill-rule:evenodd;clip-rule:evenodd;fill:none;stroke:#000000;stroke-width:15;stroke-miterlimit:10;}
</style>
<g id="back">
	<path class="st0" d="M9.2,474.5c-0.9,0-1.7-0.8-1.7-1.7V200.2c0-0.9,0.8-1.7,1.7-1.7h1.9l242-128l247.9,128h1.8
		c0.9,0,1.7,0.8,1.7,1.7v272.6c0,0.9-0.8,1.7-1.7,1.7H9.2z"/>
	<path d="M253.1,78.9l242.8,125.4l1.1,0.6V467H15V204.9l1.2-0.6L253.1,78.9 M253,62L9.2,191c-5.1,0-9.2,4.1-9.2,9.2v272.6
		c0,5.1,4.1,9.2,9.2,9.2h493.6c5.1,0,9.2-4.1,9.2-9.2V200.2c0-5.1-4.1-9.2-9.2-9.2L253,62L253,62z"/>
</g>
<g id="letter">
	<g>
		<path class="st1" d="M52.4,386.5c-1,0-1.9-0.8-1.9-1.9V39.4c0-1,0.8-1.9,1.9-1.9h404.3c1,0,1.9,0.8,1.9,1.9v345.3
			c0,1-0.8,1.9-1.9,1.9H52.4z"/>
		<path d="M451,45v334H58V45H451 M456.6,30H52.4c-5.1,0-9.4,4.2-9.4,9.4v345.3c0,5.1,4.2,9.4,9.4,9.4h404.3c5.1,0,9.4-4.2,9.4-9.4
			V39.4C466,34.2,461.8,30,456.6,30L456.6,30z"/>
	</g>
	<g>
		<line class="st2" x1="90.5" y1="142.5" x2="226.5" y2="142.5"/>
	</g>
	<g>
		<line class="st2" x1="91" y1="192.5" x2="227" y2="192.5"/>
	</g>
	<g>
		<line class="st2" x1="91" y1="242.5" x2="227" y2="242.5"/>
	</g>
	<path class="st3" d="M398,146.4c-14.8-8.5-33.2-5.7-46.2,5.7c-35.1-31-83.1,11.3-59,51.7c10.5,18.1,41,41.4,61.1,39.6
		C395.8,239.6,444.7,175.8,398,146.4z"/>
</g>
<g id="front">
	<path class="st1" d="M251.3,385.4l-226-119.3c-4.7-2.5-10.3,0.9-10.3,6.2v187.2c0,4.7,4.5,8.1,9.1,6.7l226-67.9
		C256.1,396.6,256.9,388.4,251.3,385.4z"/>
	<path class="st1" d="M259.7,384.6l226-119.3c4.7-2.5,10.3,0.9,10.3,6.2v187.2c0,4.7-4.5,8.1-9.1,6.7l-226-67.9
		C254.9,395.7,254.1,387.5,259.7,384.6z"/>
	<g>
		<polyline class="st2" points="9.5,252.5 254.5,386.5 502.5,252.5 		"/>
	</g>
</g>
</svg>
