<?xml version="1.0" encoding="utf-8"?>
<!-- Generator: Adobe Illustrator 24.0.2, SVG Export Plug-In . SVG Version: 6.00 Build 0)  -->
<svg version="1.1" xmlns="http://www.w3.org/2000/svg" xmlns:xlink="http://www.w3.org/1999/xlink" x="0px" y="0px"
	 viewBox="0 0 512 512" style="enable-background:new 0 0 512 512;" xml:space="preserve">
<style type="text/css">
	.st0{display:none;}
	.st1{display:inline;fill:#FFFFFF;}
	.st2{display:inline;}
	.st3{fill:#FFFFFF;}
	.st4{fill:none;stroke:#000000;stroke-width:10;stroke-miterlimit:10;}
	.st5{fill:#F4F6FA;}
	.st6{display:inline;fill:none;stroke:#000000;stroke-width:15;stroke-miterlimit:10;}
	.st7{display:inline;fill:#FFFFFF;stroke:#000000;stroke-width:15;stroke-miterlimit:10;}
	.st8{display:inline;fill:#F4F6FA;}
	.st9{fill-rule:evenodd;clip-rule:evenodd;fill:#F4F6FA;}
	.st10{fill-rule:evenodd;clip-rule:evenodd;fill:none;stroke:#000000;stroke-width:10;stroke-miterlimit:10;}
	.st11{fill-rule:evenodd;clip-rule:evenodd;fill:none;stroke:#000000;stroke-width:15;stroke-miterlimit:10;}
	.st12{fill-rule:evenodd;clip-rule:evenodd;fill:#FFFFFF;stroke:#000000;stroke-width:15;stroke-miterlimit:10;}
	.st13{fill-rule:evenodd;clip-rule:evenodd;fill:#F4F6FA;stroke:#000000;stroke-width:10;stroke-miterlimit:10;}
	.st14{fill:#FFFFFF;stroke:#000000;stroke-width:15;stroke-miterlimit:10;}
	.st15{fill:none;stroke:#000000;stroke-width:5;stroke-miterlimit:10;}
	.st16{fill-rule:evenodd;clip-rule:evenodd;fill:#F4F6FA;stroke:#000000;stroke-width:5;stroke-miterlimit:10;}
	.st17{display:inline;fill:#020202;stroke:#000000;stroke-width:10;stroke-miterlimit:10;}
	.st18{display:inline;fill-rule:evenodd;clip-rule:evenodd;fill:#BBFFA5;}
	.st19{display:inline;fill-rule:evenodd;clip-rule:evenodd;fill:none;stroke:#000000;stroke-width:10;stroke-miterlimit:10;}
	.st20{display:inline;fill-rule:evenodd;clip-rule:evenodd;fill:#E88960;}
	.st21{display:inline;fill-rule:evenodd;clip-rule:evenodd;fill:#EFEA4D;}
</style>
<g id="service-plan" class="st0">
	<g>
		<path class="st1" d="M177,346.9c-15-6.8-32.1-10.4-50-10.4s-35,3.6-50,10.4V149.5c14.5-7.5,32.1-11.5,50-11.5s35.5,4.1,50,11.5
			V346.9z"/>
		<path class="st2" d="M127,143c16,0,31.8,3.4,45,9.6l0,186.7c-13.8-5.2-29.1-7.9-45-7.9c-15.9,0-31.2,2.7-45,7.9l0-186.7
			C95.2,146.4,111,143,127,143 M127,133c-19.4,0-38.8,4.5-55,13.6l0,0V355l0,0c16.2-9,35.6-13.6,55-13.6s38.8,4.5,55,13.6l0,0V146.6
			l0,0C165.8,137.5,146.4,133,127,133L127,133z"/>
	</g>
	<g>
		<g class="st2">
			<path class="st3" d="M501.9,142.4H147.8C144.9,103,115.5,72,79.6,72c-37.8,0-68.4,34.3-68.4,76.6c0,1.6,0.1,3.2,0.1,4.8v197
				c0,20.5,7.5,39.1,19.9,53.5c3.2,4,6.8,7.5,10.9,10.5c14,11.1,31.7,17.8,50.9,17.8h408.7c2.8,0,5-2.2,5-5V147.4
				C506.9,144.6,504.6,142.4,501.9,142.4z"/>
		</g>
		<g class="st2">
			<path class="st4" d="M501.9,142.4H147.8C144.9,103,115.5,72,79.6,72c-37.8,0-68.4,34.3-68.4,76.6c0,1.6,0.1,3.2,0.1,4.8v197
				c0,20.5,7.5,39.1,19.9,53.5c3.2,4,6.8,7.5,10.9,10.5c14,11.1,31.7,17.8,50.9,17.8h408.7c2.8,0,5-2.2,5-5V147.4
				C506.9,144.6,504.6,142.4,501.9,142.4z"/>
		</g>
	</g>
	<path class="st5" d="M497.9,433.7H79.8c-26.3,0-47.8-21.5-47.8-47.8V168.1c0-4.7,3.9-8.6,8.6-8.6h457.4c4.7,0,8.6,3.9,8.6,8.6v257
		C506.5,429.8,502.7,433.7,497.9,433.7z"/>
	<path class="st6" d="M484.9,420.5H65.3c-26.3,0-47.8-21.5-47.8-47.8V154.1c0-4.7,3.9-8.6,8.6-8.6h458.8c4.7,0,8.6,3.9,8.6,8.6
		v257.8C493.5,416.6,489.6,420.5,484.9,420.5z"/>
	<path class="st7" d="M17.5,371.1L17.5,371.1c0-29.9,29.3-54.3,65-54.3h0c33.1,0,60.6,20.9,64.5,47.7V153.3
		c0-29.9-29.3-54.3-65-54.3h0c-35.7,0-65,24.5-65,54.3v217.6c0,22.1,16.3,41.1,39.3,49.2C33.6,412,17.5,393,17.5,371.1z"/>
	<path class="st8" d="M29.4,331.7L29.4,331.7c0-24.1,23.6-43.8,52.5-43.8h0c26.7,0,48.9,16.9,52.1,38.5V156.2
		c0-24.1-23.6-43.8-52.5-43.8h0c-28.9,0-52.5,19.7-52.5,43.8C29,156.2,29.4,349.4,29.4,331.7z"/>
	<g id="レイヤー_4" class="st2">
		<g>
			<line class="st4" x1="178.4" y1="248.7" x2="277.8" y2="248.7"/>
		</g>
		<g>
			<line class="st4" x1="178.8" y1="221.1" x2="278.2" y2="221.1"/>
		</g>
		<g>
			<line class="st4" x1="178.8" y1="276.3" x2="278.2" y2="276.3"/>
		</g>
		<rect x="195.1" y="313.9" class="st9" width="85.6" height="63.5"/>
		<rect x="185.3" y="303.9" class="st10" width="85.6" height="63.5"/>
		<polygon class="st9" points="407.6,286.9 325.4,334.4 407.6,381.9 		"/>
		<polygon class="st10" points="393.3,283.4 311.1,330.8 393.3,378.3 		"/>
		<circle class="st9" cx="399.7" cy="266.9" r="46.2"/>
		<circle class="st10" cx="388.9" cy="260.4" r="46.2"/>
	</g>
	<g id="レイヤー_2" class="st2">
	</g>
</g>
<g id="service-production">
	<g id="pc">
		<path class="st9" d="M351.1,299.9L351.1,299.9c28.8,0,52.4,23.6,52.4,52.4l24.1,56.7c0,7.8-30.5,17-38.2,17h-76.5
			c-7.8,0,9.9-9.2,9.9-17l-24.1-56.7C298.7,323.5,322.3,299.9,351.1,299.9z"/>
		<path class="st11" d="M326,287.9L326,287.9c28.8,0,52.4,23.6,52.4,52.4l24.1,56.7c0,7.8-30.5,17-38.2,17h-76.5
			c-7.8,0,9.9-9.2,9.9-17l-24.1-56.7C273.6,311.5,297.2,287.9,326,287.9z"/>
		<path class="st12" d="M479,330.4H170.2c-7.8,0-14.2-6.4-14.2-14.2V120.7c0-7.8,6.4-14.2,14.2-14.2H479c7.8,0,14.2,6.4,14.2,14.2
			v195.5C493.1,324,486.8,330.4,479,330.4z"/>
		<path class="st10" d="M342.3,289.3h-80.7c-7.8,0-14.2-6.4-14.2-14.2V164.7c0-7.8,6.4-14.2,14.2-14.2h80.7
			c7.8,0,14.2,6.4,14.2,14.2v110.5C356.4,282.9,350.1,289.3,342.3,289.3z"/>
		<polygon class="st13" points="309.7,198.7 289.2,234.3 330.2,234.3 		"/>
		<polygon class="st13" points="288.3,211.4 275.1,234.3 301.5,234.3 		"/>
		<line class="st4" x1="380.5" y1="262.2" x2="449.7" y2="262.2"/>
		<line class="st4" x1="380.8" y1="247.3" x2="450" y2="247.3"/>
		<line class="st4" x1="380.6" y1="275.6" x2="449.8" y2="275.6"/>
		<polyline class="st4" points="408.7,146 394.4,148.8 397.1,163.1 381.6,168.8 		"/>
		<polyline class="st4" points="419.6,179 405.3,181.7 408,196.1 392.5,201.7 		"/>
		<polyline class="st4" points="201.6,144.9 215,150.6 209.2,164 223.2,172.9 		"/>
		<polyline class="st4" points="186,174.9 199.4,180.7 193.6,194.1 207.6,203 		"/>
	</g>
	<g id="sp">
		<path class="st14" d="M160.4,403.3l-82.8,6.2c-8.6,0-15.6-7-15.6-15.6V234.6c0-8.6,7-15.6,15.6-15.6l82.8-6.2
			c8.6,0,15.6,7,15.6,15.6v159.3C176,396.2,169,403.3,160.4,403.3z"/>
		<line class="st15" x1="102.5" y1="363.6" x2="139.9" y2="360.8"/>
		<line class="st15" x1="102.9" y1="353.9" x2="140.3" y2="351.1"/>
		<line class="st15" x1="102.3" y1="372.1" x2="139.7" y2="369.3"/>
		<path class="st10" d="M139.7,327.2l-40,3.1c-6.8,0-12.4-5.6-12.4-12.4v-44.8c0-10.3,8.5-18.8,18.8-18.8l33.6-3.1
			c4.2,0,11.3-2.6,12.6,6v51.1C152.2,318.8,150,327.2,139.7,327.2z"/>
		<polygon class="st16" points="123.6,278.9 115.3,299.2 135.4,297.4 		"/>
		<polygon class="st16" points="113.7,286.8 108.4,299.8 121.3,298.7 		"/>
		<path class="st4" d="M31.9,170.6l4,10.1c1.3,3.4,4.6,5.6,8.2,5.6h0c4,0,7.6,2.3,9.4,5.8l4.9,9.8"/>
		<path class="st4" d="M16.9,193l4,10.1c1.3,3.4,4.6,5.6,8.2,5.6h0c4,0,7.6,2.3,9.4,5.8l4.9,9.8"/>
	</g>
</g>
<g id="レイヤー_3" class="st0">
	<g class="st2">
		<path class="st3" d="M101.4,464.5c-42.3,0-76.8-34.4-76.8-76.8V184.7h485.5v279.8H101.4z"/>
		<path d="M505.1,189.7v269.8H101.4c-39.6,0-71.8-32.2-71.8-71.8V189.7H505.1 M510.1,179.7H24.6c-2.8,0-5,2.2-5,5v203.1
			c0,45.2,36.6,81.8,81.8,81.8h408.7c2.8,0,5-2.2,5-5V184.7C515.1,181.9,512.8,179.7,510.1,179.7L510.1,179.7z"/>
	</g>
	<g class="st2">
		<ellipse class="st3" cx="86.6" cy="392.9" rx="63.4" ry="71.6"/>
		<path d="M86.6,326.3c32.2,0,58.4,29.9,58.4,66.6s-26.2,66.6-58.4,66.6s-58.4-29.9-58.4-66.6S54.4,326.3,86.6,326.3 M86.6,316.3
			c-37.8,0-68.4,34.3-68.4,76.6s30.6,76.6,68.4,76.6s68.4-34.3,68.4-76.6S124.4,316.3,86.6,316.3L86.6,316.3z"/>
	</g>
	<g class="st2">
		<rect x="84.2" y="374.5" class="st3" width="109" height="84.8"/>
	</g>
	<g class="st2">
		<ellipse class="st3" cx="87.8" cy="185.9" rx="63.4" ry="71.6"/>
		<path d="M87.8,119.3c32.2,0,58.4,29.9,58.4,66.6s-26.2,66.6-58.4,66.6s-58.4-29.9-58.4-66.6S55.6,119.3,87.8,119.3 M87.8,109.3
			c-37.8,0-68.4,34.3-68.4,76.6s30.6,76.6,68.4,76.6s68.4-34.3,68.4-76.6S125.6,109.3,87.8,109.3L87.8,109.3z"/>
	</g>
	<g class="st2">
		<rect x="29.2" y="190.5" class="st3" width="140.6" height="88.3"/>
	</g>
	<line class="st17" x1="151.6" y1="188" x2="151.2" y2="374.3"/>
	<g class="st2">
		<line class="st4" x1="186.6" y1="286" x2="286" y2="286"/>
	</g>
	<g class="st2">
		<line class="st4" x1="187" y1="258.4" x2="286.4" y2="258.4"/>
	</g>
	<g class="st2">
		<line class="st4" x1="187" y1="313.6" x2="286.4" y2="313.6"/>
	</g>
	<rect x="203.3" y="351.2" class="st18" width="85.6" height="63.5"/>
	<rect x="193.5" y="341.2" class="st19" width="85.6" height="63.5"/>
	<polygon class="st20" points="415.9,324.2 333.6,371.7 415.9,419.2 	"/>
	<polygon class="st19" points="401.5,320.7 319.3,368.1 401.5,415.6 	"/>
	<circle class="st21" cx="407.9" cy="304.2" r="46.2"/>
	<circle class="st19" cx="397.1" cy="297.7" r="46.2"/>
</g>
</svg>
