<?xml version="1.0" encoding="utf-8"?>
<!-- Generator: Adobe Illustrator 24.0.2, SVG Export Plug-In . SVG Version: 6.00 Build 0)  -->
<svg version="1.1" id="service-support" xmlns="http://www.w3.org/2000/svg" xmlns:xlink="http://www.w3.org/1999/xlink" x="0px"
	 y="0px" viewBox="0 0 512 512" style="enable-background:new 0 0 512 512;" xml:space="preserve">
<style type="text/css">
	.st0{fill:#F4F6FA;}
	.st1{fill:none;stroke:#000000;stroke-width:15;stroke-miterlimit:10;}
	.st2{fill:#FFFFFF;}
	.st3{fill:#FFFFFF;stroke:#000000;stroke-width:15;stroke-miterlimit:10;}
	.st4{fill:none;stroke:#000000;stroke-width:10;stroke-miterlimit:10;}
	.st5{fill-rule:evenodd;clip-rule:evenodd;fill:#FFFFFF;stroke:#000000;stroke-width:10;stroke-miterlimit:10;}
	.st6{fill-rule:evenodd;clip-rule:evenodd;fill:#FFFFFF;stroke:#000000;stroke-width:15;stroke-miterlimit:10;}
</style>
<g>
	<rect x="24" y="91" class="st0" width="463" height="339"/>
</g>
<g>
	<line class="st1" x1="253.8" y1="84.7" x2="253.8" y2="138"/>
</g>
<g>
	<path class="st2" d="M32.8,295.5c-0.5,0-1,0-1.5,0V113.9h66.7c0,25.9,0,111.2,0,134.6l-0.1,0l0.1,6.1c0.1,7.8-3.1,15-9.5,21.4
		C76.7,288,55.4,295.5,32.8,295.5C32.8,295.5,32.8,295.5,32.8,295.5z"/>
	<path d="M90.6,121.4c0,29.7,0,95.4,0,121.8l-0.1,0l0.1,11.4c0.1,5.7-2.4,11.1-7.3,16.1c-9.5,9.6-26.1,15.9-44.4,17V121.4H90.6
		 M105.6,106.4H23.9v196.3c3,0.2,6,0.4,9,0.4c38.7,0,73.1-20.1,72.8-48.5C105.6,254.5,105.6,106.4,105.6,106.4L105.6,106.4z"/>
</g>
<path class="st3" d="M53,398.5v49.3c0,8.9,90.2,16.2,201.4,16.2s201.4-7.2,201.4-16.2v-49.3"/>
<path class="st3" d="M455.8,398.5c10.1,20.6-412.9,20.6-402.8,0C42.9,377.8,465.9,377.8,455.8,398.5z"/>
<g>
	<path class="st2" d="M289,397.5c1.5,7-67.9,7-66.4,0C221.1,390.5,290.5,390.5,289,397.5z"/>
	<path d="M255.8,392.2c-17,0-33.9,1.8-33.2,5.3c-0.7,3.5,16.2,5.3,33.2,5.3c17,0,33.9-1.8,33.2-5.3
		C289.7,394,272.8,392.2,255.8,392.2L255.8,392.2z"/>
</g>
<g>
	<line class="st4" x1="256" y1="272.5" x2="256" y2="395"/>
</g>
<path class="st5" d="M277.6,158.6h-46c-1.7-20.8,7.3-28.8,27.7-27.1C274.5,131.8,279,145.4,277.6,158.6z"/>
<path class="st5" d="M258.5,303c-6.9,0.9-15.1-1.9-15-10c0.9-8.6-4.4-30.1,10-30c6.9-0.9,15.1,1.9,15,10
	C267.6,281.6,272.9,303.1,258.5,303z"/>
<path class="st4" d="M243,283c9.1,4.5,16.9,4.5,26,0"/>
<rect x="101.1" y="67.8" class="st6" width="334.9" height="37.9"/>
<g>
	<path class="st2" d="M37.6,215.2c-2,0-4.1-0.1-6.2-0.2V68.7h104.3c1.7,39.7-6.3,90-34,119.9C85.4,206.2,63.8,215.2,37.6,215.2z"/>
	<path d="M128.4,76.2c0.2,14.7-0.9,33.1-5.4,52.3c-5.4,23.2-14.5,41.7-26.9,55.1c-14.6,15.7-33.8,23.8-57.3,24.1V76.2H128.4
		 M142.8,61.2H23.9v160.7c4.8,0.5,9.3,0.7,13.7,0.7C125.4,222.7,147.9,129.8,142.8,61.2L142.8,61.2z"/>
</g>
<g>
	<path class="st2" d="M478.1,293c-22.5,0-43.9-7.5-55.8-19.5c-6.4-6.5-9.6-13.7-9.5-21.4l0.1-5.1l-0.1,0c0-21.9,0-109.3,0-135.6
		h66.7v181.6C479.1,292.9,478.6,293,478.1,293z"/>
	<path d="M472.1,118.8v166.4c-18.3-1.2-34.9-7.5-44.4-17c-4.9-5-7.4-10.4-7.3-16.1l0.2-15.2h-0.2c0-28.4,0-89.7,0-118.1H472.1
		 M487.1,103.8h-81.7c0,0,0,148.1,0,148.1c-0.3,28.3,34.1,48.5,72.8,48.5c3,0,6-0.1,9-0.4V103.8L487.1,103.8z"/>
</g>
<g>
	<path class="st2" d="M473.4,214.9c-26.2,0-47.7-8.9-64-26.5c-27.8-29.9-35.8-80.3-34-119.9h104.3v146.2
		C477.5,214.9,475.4,214.9,473.4,214.9C473.4,214.9,473.4,214.9,473.4,214.9z"/>
	<path d="M472.1,76v131.4c-23.5-0.3-42.7-8.4-57.3-24.1c-12.4-13.4-21.5-31.9-26.9-55.1c-4.5-19.2-5.6-37.6-5.4-52.3H472.1
		 M487.1,61H368.2c-5.1,68.5,17.4,161.4,105.1,161.4c4.4,0,9-0.2,13.7-0.7V61L487.1,61z"/>
</g>
<line class="st1" x1="252.4" y1="419.5" x2="252.4" y2="457.9"/>
<line class="st1" x1="309.4" y1="419.5" x2="309.4" y2="459.6"/>
<line class="st1" x1="366.4" y1="416.7" x2="366.4" y2="457.9"/>
<line class="st1" x1="423.4" y1="410.2" x2="423.4" y2="453.9"/>
<line class="st1" x1="195.3" y1="419.5" x2="195.3" y2="459.6"/>
<line class="st1" x1="138.3" y1="414.3" x2="138.3" y2="457.9"/>
<line class="st1" x1="81.3" y1="407" x2="81.3" y2="453.9"/>
</svg>
