<svg version="1.1" id="layer_1" xmlns="http://www.w3.org/2000/svg" x="0" y="0" viewBox="0 0 48 48" xml:space="preserve"><style>.st1{display:none}.st2,.st3{display:inline;fill:#1a171b}.st3{display:none}</style><g class="st1"><path class="st2" d="M-312.4-312.4h-45.8v-27.4c0-.4-.3-.7-.7-.7-.4 0-.7.3-.7.7v28.1c0 .4.3.7.7.7h46.5c.4 0 .7-.3.7-.7.1-.3-.3-.7-.7-.7z"/><path class="st2" d="M-312.1-333.7c-.3-.1-.6 0-.8.2l-4.2 4.2-20.4-20.4c-.3-.3-.7-.3-1 0l-5.5 5.5-14.4-14.4c-.2-.2-.5-.3-.8-.2-.3.1-.4.4-.4.7v9.7c0 .2.1.4.2.5l14.9 14.9c.3.3.7.3 1 0l5.5-5.5 15 15-4 4c-.2.2-.3.5-.2.8.1.3.4.4.7.4h14.1c.4 0 .7-.3.7-.7v-14.1c.1-.3-.1-.5-.4-.6zm-1 14h-11.6l3.3-3.3c.3-.3.3-.7 0-1l-16-16c-.3-.3-.7-.3-1 0l-5.5 5.5-14.2-14.2v-7.6l13.7 13.7c.3.3.7.3 1 0l5.5-5.5 20.4 20.4c.3.3.7.3 1 0l3.4-3.4v11.4zM-349.5-314.5V-332c0-.4-.3-.7-.7-.7-.4 0-.7.3-.7.7v17.5c0 .4.3.7.7.7.4 0 .7-.3.7-.7zM-340.7-314.5v-13.8c0-.4-.3-.7-.7-.7-.4 0-.7.3-.7.7v13.8c0 .4.3.7.7.7.3 0 .7-.3.7-.7z"/><path class="st2" d="M-332-314.5v-12.1c0-.4-.3-.7-.7-.7-.4 0-.7.3-.7.7v12.1c0 .4.3.7.7.7.4 0 .7-.3.7-.7z"/></g><g class="st1"><path class="st2" d="M-224.4-333.7c-.4 0-.7.3-.7.7 0 7.6-6.2 13.8-13.8 13.8-7.6 0-13.8-6.2-13.8-13.8 0-7.6 6.2-13.8 13.8-13.8 2.9 0 5.6.9 8 2.5.3.2.8.2 1-.2.2-.3.2-.8-.2-1-1-.7-2.1-1.3-3.2-1.8v-8.1c0-2-1.6-3.6-3.6-3.6H-268c-2 0-3.6 1.6-3.6 3.6v40.7c0 2 1.6 3.6 3.6 3.6h31c2 0 3.6-1.6 3.6-3.6v-4.2c5.7-2.2 9.7-7.8 9.7-14.2 0-.3-.3-.6-.7-.6zm-36.2-23.8h16v2.2c0 1.2-1 2.2-2.2 2.2h-11.6c-1.2 0-2.2-1-2.2-2.2v-2.2zm25.7 43c0 1.2-1 2.2-2.2 2.2h-31c-1.2 0-2.2-1-2.2-2.2v-40.7c0-1.2 1-2.2 2.2-2.2h6.1v2.2c0 2 1.6 3.6 3.6 3.6h11.6c2 0 3.6-1.6 3.6-3.6v-2.2h6.1c1.2 0 2.2 1 2.2 2.2v7.6c-1.3-.4-2.7-.6-4.1-.6-8.4 0-15.3 6.9-15.3 15.3s6.9 15.3 15.3 15.3c1.4 0 2.8-.2 4.1-.6v3.7z"/><path class="st2" d="M-246.3-338.6c-.2-.2-.5-.3-.8-.2-.3.1-.4.4-.4.7v7.3c0 .2.1.4.2.5l7.5 7.5c.1.1.3.2.5.2s.4-.1.5-.2l14.7-14.7c.1-.1.2-.3.2-.5v-7.3c0-.3-.2-.6-.4-.7-.3-.1-.6 0-.8.2l-14.2 14.2-7-7zm21-4.9v5.2l-14 14-6.8-6.8v-5.2l6.3 6.3c.3.3.7.3 1 0l13.5-13.5zM-260.5-346.8h10.1c.4 0 .7-.3.7-.7 0-.4-.3-.7-.7-.7h-10.1c-.4 0-.7.3-.7.7 0 .4.3.7.7.7zM-264.4-348.2h-1.9c-.4 0-.7.3-.7.7 0 .4.3.7.7.7h1.9c.4 0 .7-.3.7-.7 0-.4-.3-.7-.7-.7zM-260.5-340h5.3c.4 0 .7-.3.7-.7 0-.4-.3-.7-.7-.7h-5.3c-.4 0-.7.3-.7.7 0 .4.3.7.7.7zM-264.4-341.5h-1.9c-.4 0-.7.3-.7.7 0 .4.3.7.7.7h1.9c.4 0 .7-.3.7-.7 0-.3-.3-.7-.7-.7zM-260.5-333.2h3.3c.4 0 .7-.3.7-.7 0-.4-.3-.7-.7-.7h-3.3c-.4 0-.7.3-.7.7 0 .4.3.7.7.7zM-264.4-334.7h-1.9c-.4 0-.7.3-.7.7 0 .4.3.7.7.7h1.9c.4 0 .7-.3.7-.7 0-.3-.3-.7-.7-.7zM-260.5-326.4h4.3c.4 0 .7-.3.7-.7 0-.4-.3-.7-.7-.7h-4.3c-.4 0-.7.3-.7.7 0 .3.3.7.7.7zM-264.4-327.9h-1.9c-.4 0-.7.3-.7.7 0 .4.3.7.7.7h1.9c.4 0 .7-.3.7-.7 0-.4-.3-.7-.7-.7zM-252.3-321.1h-8.2c-.4 0-.7.3-.7.7 0 .4.3.7.7.7h8.2c.4 0 .7-.3.7-.7 0-.4-.3-.7-.7-.7zM-264.4-321.1h-1.9c-.4 0-.7.3-.7.7 0 .4.3.7.7.7h1.9c.4 0 .7-.3.7-.7 0-.4-.3-.7-.7-.7z"/></g><path class="st3" d="M-157-334.4c.1.1.3.2.5.2s.4-.1.5-.2l17.6-17.6h5.2c.4 0 .7-.3.7-.7 0-.4-.3-.7-.7-.7h-3.7l4.3-4.3c.3-.3.3-.7 0-1-.3-.3-.7-.3-1 0l-4.3 4.3v-3.7c0-.4-.3-.7-.7-.7s-.7.3-.7.7v5.2l-2.7 2.7c-3.7-3.5-8.5-5.5-13.6-5.7v-2.2c0-.4-.3-.7-.7-.7-.4 0-.7.3-.7.7v2.2c-11.1.4-20 9.3-20.3 20.3h-2.2c-.4 0-.7.3-.7.7 0 .4.3.7.7.7h2.2c.4 11.1 9.3 20 20.3 20.3v2.2c0 .4.3.7.7.7.4 0 .7-.3.7-.7v-2.2c11.1-.4 20-9.3 20.3-20.3h2.2c.4 0 .7-.3.7-.7 0-.4-.3-.7-.7-.7h-2.2c-.1-4.1-1.4-8-3.8-11.3-.2-.3-.7-.4-1-.2-.3.2-.4.7-.2 1 2.2 3.1 3.4 6.7 3.5 10.5h-2.2c-.4 0-.7.3-.7.7 0 .4.3.7.7.7h2.1c-.4 10.2-8.6 18.5-18.9 18.9v-2.1c0-.4-.3-.7-.7-.7-.4 0-.7.3-.7.7v2.1c-10.2-.4-18.5-8.6-18.9-18.9h2.1c.4 0 .7-.3.7-.7 0-.4-.3-.7-.7-.7h-2.1c.4-10.2 8.6-18.5 18.9-18.9v2.1c0 .4.3.7.7.7.4 0 .7-.3.7-.7v-2.1c4.7.2 9.2 2 12.6 5.2l-3.8 3.8c-2.6-2.4-6-3.7-9.6-3.7-7.9 0-14.3 6.4-14.3 14.3s6.4 14.3 14.3 14.3 14.3-6.4 14.3-14.3c0-2.4-.6-4.7-1.7-6.8-.2-.4-.6-.5-1-.3s-.5.6-.3 1c1 1.9 1.6 4 1.6 6.1 0 7.1-5.8 12.8-12.8 12.8-7.1 0-12.8-5.8-12.8-12.8 0-7.1 5.8-12.8 12.8-12.8 3.2 0 6.2 1.2 8.5 3.3l-3.8 3.8c-1.3-1.1-3-1.7-4.8-1.7-4.1 0-7.5 3.4-7.5 7.5s3.4 7.5 7.5 7.5 7.5-3.4 7.5-7.5c0-.6-.1-1.2-.2-1.7-.1-.4-.5-.6-.9-.5-.4.1-.6.5-.5.9.1.5.2.9.2 1.4 0 3.3-2.7 6.1-6.1 6.1-3.3 0-6.1-2.7-6.1-6.1s2.7-6.1 6.1-6.1c1.4 0 2.7.5 3.7 1.3l-4.3 4.3c-.1.1-.1.5.2.8z"/><g class="st1"><path class="st2" d="M-54.8-340.7h-1.5c-.1-.6-.3-1.1-.4-1.7l1.3-.7c.3-.2.6-.5.7-.9.1-.4 0-.8-.2-1.1l-1.2-2c-.4-.7-1.3-1-2.1-.5l-1.3.7-1.2-1.2.7-1.3c.4-.7.2-1.6-.6-2.1l-2-1.2c-.3-.2-.8-.3-1.1-.2-.4.1-.7.4-.9.7l-.7 1.3c-.5-.2-1.1-.3-1.7-.4v-1.5c0-.8-.7-1.5-1.5-1.5h-2.3c-.8 0-1.5.7-1.5 1.5v1.5c-.6.1-1.1.3-1.7.4l-.7-1.3c-.2-.3-.5-.6-.9-.7-.4-.1-.8-.1-1.1.2l-2 1.2c-.7.4-1 1.3-.5 2.1l.7 1.3-1.2 1.2-1.3-.7c-.7-.4-1.6-.2-2.1.6l-1.2 2c-.4.7-.2 1.6.5 2.1l1.3.7c-.2.5-.3 1.1-.4 1.7h-1.5c-.8 0-1.5.7-1.5 1.5v2.3c0 .8.7 1.5 1.5 1.5h1.5c.1.6.3 1.1.4 1.7l-1.3.7c-.3.2-.6.5-.7.9-.1.4-.1.8.2 1.1l1.2 2c.4.7 1.3 1 2.1.5l1.3-.7 1.2 1.2-.7 1.3c-.4.7-.2 1.6.5 2.1l2 1.2c.3.2.8.3 1.1.2.4-.1.7-.4.9-.7l.7-1.3c.5.2 1.1.3 1.7.4v1.5c0 .8.7 1.5 1.5 1.5h2.3c.8 0 1.5-.7 1.5-1.5v-1.5c.6-.1 1.1-.3 1.7-.4l.7 1.3c.2.3.5.6.9.7.4.1.8.1 1.1-.2l2-1.2c.7-.4 1-1.3.6-2.1l-.7-1.3 1.2-1.2 1.3.7c.7.4 1.6.2 2.1-.5l1.2-2c.2-.3.3-.8.2-1.1-.1-.4-.4-.7-.7-.9l-1.3-.7c.2-.5.3-1.1.4-1.7h1.5c.8 0 1.5-.7 1.5-1.5v-2.3c0-1-.7-1.7-1.5-1.7zm0 3.9h-2.1c-.4 0-.7.3-.7.6-.1.9-.4 1.7-.7 2.6-.1.3 0 .7.3.9l1.8 1.1-1.2 2-1.8-1c-.3-.2-.7-.1-.9.2-.6.7-1.2 1.3-1.9 1.9-.3.2-.4.6-.2.9l1 1.9-2.1 1.1-1-1.8c-.2-.3-.6-.4-.9-.3-.8.3-1.7.6-2.6.7-.4.1-.6.4-.6.7v2.1h-2.4v-2.1c0-.4-.3-.7-.6-.7-.9-.1-1.7-.4-2.6-.7h-.3c-.3 0-.5.1-.6.4l-1.1 1.8-2-1.2 1-1.8c.2-.3.1-.7-.2-.9-.7-.6-1.3-1.2-1.9-1.9-.2-.3-.6-.4-.9-.2l-1.9 1-1.1-2.1 1.8-1c.3-.2.4-.6.3-.9-.3-.8-.6-1.7-.7-2.6-.1-.4-.4-.6-.7-.6h-2.1v-2.4h2.1c.4 0 .7-.3.7-.6.1-.9.4-1.7.7-2.6.1-.3 0-.7-.3-.9l-1.8-1.1 1.2-2 1.8 1c.3.2.7.1.9-.2.6-.7 1.2-1.3 1.9-1.9.3-.2.4-.6.2-.9l-1-1.9 2.1-1.1 1 1.8c.2.3.6.4.9.3.8-.3 1.7-.6 2.6-.7.4-.1.6-.4.6-.7v-2.1h2.4v2.1c0 .4.3.7.6.7.9.1 1.7.4 2.6.7.3.1.7 0 .9-.3l1.1-1.8 2 1.2-1 1.8c-.2.3-.1.7.2.9.7.6 1.3 1.2 1.9 1.9.2.3.6.4.9.2l1.9-1 1.1 2.1-1.8 1c-.3.2-.4.6-.3.9.3.8.6 1.7.7 2.6.1.4.4.6.7.6h2.1v2.3z"/><path class="st2" d="M-44.1-320.4l-7.3-7.3c4.6-8.2 3.3-18.4-3.4-25-3.9-3.9-9.2-6.1-14.8-6.1-5.6 0-10.8 2.2-14.8 6.1-3.9 3.9-6.1 9.2-6.1 14.8 0 5.6 2.2 10.8 6.1 14.8 6.7 6.7 16.9 8 25 3.4l7.3 7.3c1.1 1.1 2.5 1.6 3.9 1.6s2.9-.6 3.9-1.6c2.4-2.3 2.4-5.9.2-8zm-14.6-.9c-.1-.1-.3-.2-.5-.2-.1 0-.3 0-.4.1-7.7 4.6-17.4 3.4-23.7-2.9-7.6-7.6-7.6-19.9 0-27.5 3.7-3.7 8.5-5.7 13.7-5.7 5.2 0 10.1 2 13.7 5.7 6.3 6.3 7.5 16.1 2.9 23.7-.2.3-.1.7.1.9l5.6 5.6c-1 2.4-3.5 4.8-5.8 5.8l-5.6-5.5zm13.6 7.7c-.8.8-1.8 1.2-2.9 1.2-1.1 0-2.1-.4-2.9-1.2l-1-1c2.4-1.2 4.7-3.5 5.8-5.8l1 1c1.6 1.6 1.6 4.2 0 5.8z"/><path class="st2" d="M-64.2-345.3c-.3-.3-.7-.3-1 0l-11.6 11.6c-.3.3-.3.7 0 1 .1.1.3.2.5.2s.4-.1.5-.2l11.6-11.6c.3-.3.3-.7 0-1zM-63.3-339.5l-7.8 7.8c-.3.3-.3.7 0 1 .1.1.3.2.5.2s.4-.1.5-.2l7.8-7.8c.3-.3.3-.7 0-1-.3-.3-.7-.3-1 0z"/></g><g class="st1"><path class="st2" d="M6.1-358.9c-3.3 0-6.1 2.7-6.1 6.1 0 3.3 2.7 6.1 6.1 6.1 3.3 0 6.1-2.7 6.1-6.1-.1-3.4-2.8-6.1-6.1-6.1zm0 10.6c-2.5 0-4.6-2.1-4.6-4.6 0-2.5 2.1-4.6 4.6-4.6 2.5 0 4.6 2.1 4.6 4.6 0 2.6-2.1 4.6-4.6 4.6zM24-346.8c3.3 0 6.1-2.7 6.1-6.1 0-3.3-2.7-6.1-6.1-6.1-3.3 0-6.1 2.7-6.1 6.1 0 3.4 2.7 6.1 6.1 6.1zm0-10.7c2.5 0 4.6 2.1 4.6 4.6 0 2.5-2.1 4.6-4.6 4.6-2.5 0-4.6-2.1-4.6-4.6 0-2.5 2-4.6 4.6-4.6zM41.9-346.8c3.3 0 6.1-2.7 6.1-6.1 0-3.3-2.7-6.1-6.1-6.1-3.3 0-6.1 2.7-6.1 6.1.1 3.4 2.8 6.1 6.1 6.1zm0-10.7c2.5 0 4.6 2.1 4.6 4.6 0 2.5-2.1 4.6-4.6 4.6-2.5 0-4.6-2.1-4.6-4.6 0-2.5 2.1-4.6 4.6-4.6zM6.1-341c-3.3 0-6.1 2.7-6.1 6.1 0 3.3 2.7 6.1 6.1 6.1 3.3 0 6.1-2.7 6.1-6.1-.1-3.4-2.8-6.1-6.1-6.1zm0 10.7c-2.5 0-4.6-2.1-4.6-4.6 0-2.5 2.1-4.6 4.6-4.6 2.5 0 4.6 2.1 4.6 4.6 0 2.5-2.1 4.6-4.6 4.6zM6.1-323.1c-3.3 0-6.1 2.7-6.1 6.1 0 3.3 2.7 6.1 6.1 6.1 3.3 0 6.1-2.7 6.1-6.1-.1-3.3-2.8-6.1-6.1-6.1zm0 10.7c-2.5 0-4.6-2.1-4.6-4.6 0-2.5 2.1-4.6 4.6-4.6 2.5 0 4.6 2.1 4.6 4.6 0 2.5-2.1 4.6-4.6 4.6zM27.1-313.6c-.8.8-1.9 1.2-3.1 1.2-2.5 0-4.6-2.1-4.6-4.6 0-2.5 2.1-4.6 4.6-4.6.4 0 .7-.3.7-.7 0-.4-.3-.7-.7-.7-3.3 0-6.1 2.7-6.1 6.1 0 3.3 2.7 6.1 6.1 6.1 1.5 0 2.9-.5 4-1.5.3-.3.3-.7.1-1-.3-.5-.7-.5-1-.3zM36.6-334.2c.4 0 .7-.3.7-.7 0-2.5 2.1-4.6 4.6-4.6 2.5 0 4.6 2.1 4.6 4.6 0 1.1-.4 2.2-1.2 3.1-.3.3-.2.8.1 1 .1.1.3.2.5.2s.4-.1.5-.2c1-1.1 1.5-2.5 1.5-4 0-3.3-2.7-6.1-6.1-6.1-3.3 0-6.1 2.7-6.1 6.1.2.3.5.6.9.6zM44.9-322.3c-.4-.2-.8-.1-1 .3-.2.4-.1.8.3 1 1.5.8 2.4 2.4 2.4 4 0 1.2-.5 2.4-1.3 3.3-.9.9-2 1.3-3.3 1.3-1.7 0-3.2-.9-4-2.4-.2-.4-.6-.5-1-.3s-.5.6-.3 1c1.1 1.9 3.1 3.1 5.3 3.1 1.6 0 3.1-.6 4.3-1.8 1.1-1.1 1.8-2.7 1.8-4.3-.1-2.1-1.3-4.1-3.2-5.2z"/><path class="st2" d="M47.6-326.3c.3-.1.4-.4.4-.7 0-.3-.2-.6-.5-.7l-17.6-6c.1-.4.2-.8.2-1.3 0-3.3-2.7-6.1-6.1-6.1-3.3 0-6.1 2.7-6.1 6.1 0 3.3 2.7 6.1 6.1 6.1.4 0 .9-.1 1.3-.2l6 17.6c.1.3.4.5.7.5.3 0 .5-.2.7-.4l4.6-10.3 10.3-4.6zm-23.6-4c-2.5 0-4.6-2.1-4.6-4.6 0-2.5 2.1-4.6 4.6-4.6 2.5 0 4.6 2.1 4.6 4.6 0 .3 0 .5-.1.8l-4.3-1.5c-.3-.1-.6 0-.8.2-.2.2-.3.5-.2.8l1.5 4.3H24zm12 7.8l-4 8.9-6.9-20.1 20.1 6.9-8.9 4c-.1 0-.2.1-.3.3z"/></g><g class="st1"><path class="st2" d="M-344.5-258h5.8c.4 0 .7-.3.7-.7 0-.4-.3-.7-.7-.7h-5.8c-.4 0-.7.3-.7.7 0 .4.3.7.7.7zM-354.2-258h5.8c.4 0 .7-.3.7-.7 0-.4-.3-.7-.7-.7h-5.8c-.4 0-.7.3-.7.7 0 .4.3.7.7.7zM-343.5-252.7h-10.7c-.4 0-.7.3-.7.7 0 .4.3.7.7.7h10.7c.4 0 .7-.3.7-.7 0-.3-.3-.7-.7-.7zM-354.2-244.4h8.7c.4 0 .7-.3.7-.7 0-.4-.3-.7-.7-.7h-8.7c-.4 0-.7.3-.7.7 0 .3.3.7.7.7zM-344.5-239.1h-9.7c-.4 0-.7.3-.7.7 0 .4.3.7.7.7h9.7c.4 0 .7-.3.7-.7 0-.4-.3-.7-.7-.7zM-348.4-232.3h-5.8c-.4 0-.7.3-.7.7 0 .4.3.7.7.7h5.8c.4 0 .7-.3.7-.7 0-.4-.3-.7-.7-.7z"/><path class="st2" d="M-321.3-258.3v-8.2c0-2-1.6-3.6-3.6-3.6h-31c-2 0-3.6 1.6-3.6 3.6v40.7c0 2 1.6 3.6 3.6 3.6h31c2 0 3.6-1.6 3.6-3.6v-4.2c5.6-2.2 9.6-7.7 9.6-14.1 0-6.5-4-11.9-9.6-14.2zm7.6 10.5l-7.1 1.6c-.8-2.4-2.9-4.1-5.5-4.4v-7.2c6.1.2 11.1 4.4 12.6 10zm-18.3 3.7c0-2.8 2.3-5.1 5.1-5.1s5.1 2.3 5.1 5.1-2.3 5.1-5.1 5.1c-2.8-.1-5.1-2.3-5.1-5.1zm2 5.7l-2.7 6.7c-4.7-2.2-8-7-8-12.5 0-7.4 5.8-13.4 13-13.7v7.2c-3.3.4-5.8 3.1-5.8 6.5 0 2.5 1.4 4.7 3.5 5.8zm-18.5-30.3h16v2.2c0 1.2-1 2.2-2.2 2.2h-11.6c-1.2 0-2.2-1-2.2-2.2v-2.2zm25.7 42.9c0 1.2-1 2.2-2.2 2.2h-31c-1.2 0-2.2-1-2.2-2.2v-40.7c0-1.2 1-2.2 2.2-2.2h6.1v2.2c0 2 1.6 3.6 3.6 3.6h11.6c2 0 3.6-1.6 3.6-3.6v-2.2h6.1c1.2 0 2.2 1 2.2 2.2v7.7c-1.3-.4-2.7-.6-4.2-.6-8.4 0-15.2 6.8-15.2 15.2 0 8.4 6.8 15.2 15.2 15.2 1.4 0 2.8-.2 4.2-.6v3.8zm-4.1-4.6c-1.6 0-3-.3-4.4-.7l2.7-6.7c.6.2 1.1.2 1.7.2 3.6 0 6.5-2.9 6.5-6.5v-.7l7.1-1.6c.1.7.2 1.5.2 2.3 0 7.6-6.2 13.7-13.8 13.7z"/></g><path class="st3" d="M-242.9-222.1c-.2 0-.4-.1-.5-.2l-4.3-4.3-4.3 4.3c-.2.2-.5.3-.8.2-.3-.1-.4-.4-.4-.7v-17.7h-7.3v4.1c0 .3-.2.6-.4.7-.3.1-.6.1-.8-.2l-9.7-9.7c-.3-.3-.3-.7 0-1l9.7-9.7c.2-.2.5-.3.8-.2.3.1.4.4.4.7v4.1h7.3v-7.3h-4.1c-.3 0-.6-.2-.7-.4-.1-.3-.1-.6.2-.8l9.7-9.7c.3-.3.7-.3 1 0l9.7 9.7c.2.2.3.5.2.8-.1.3-.4.4-.7.4h-4.1v7.3h7.3v-4.1c0-.3.2-.6.4-.7.3-.1.6-.1.8.2l9.7 9.7c.3.3.3.7 0 1l-9.7 9.7c-.2.2-.5.3-.8.2-.3-.1-.4-.4-.4-.7v-4.1h-7.3v17.7c0 .3-.2.6-.4.7h-.5zm-4.8-6.3c.2 0 .4.1.5.2l3.6 3.6v-16.7c0-.4.3-.7.7-.7h8.7c.4 0 .7.3.7.7v3.1l7.9-7.9-7.9-7.9v3.1c0 .4-.3.7-.7.7h-8.7c-.4 0-.7-.3-.7-.7v-8.7c0-.4.3-.7.7-.7h3.1l-7.9-7.9-7.9 7.9h3.1c.4 0 .7.3.7.7v8.7c0 .4-.3.7-.7.7h-8.7c-.4 0-.7-.3-.7-.7v-3.1l-7.9 7.9 7.9 7.9v-3.1c0-.4.3-.7.7-.7h8.7c.4 0 .7.3.7.7v16.7l3.6-3.6c.1-.2.3-.2.5-.2z"/><g class="st1"><path class="st2" d="M-152.6-245.7h-7.8c-1.5 0-2.7 1.2-2.7 2.7v20.1c0 .4.3.7.7.7h11.6c.4 0 .7-.3.7-.7V-243c.2-1.5-1-2.7-2.5-2.7zm1.2 22.1h-10.2V-243c0-.7.5-1.2 1.2-1.2h7.8c.7 0 1.2.5 1.2 1.2v19.4zM-170.1-232.1h-7.8c-1.5 0-2.7 1.2-2.7 2.7v6.6c0 .4.3.7.7.7h11.6c.4 0 .7-.3.7-.7v-6.6c.2-1.5-1-2.7-2.5-2.7zm1.3 8.5H-179v-5.8c0-.7.5-1.2 1.2-1.2h7.8c.7 0 1.2.5 1.2 1.2v5.8zM-135.1-238.9h-7.8c-1.5 0-2.7 1.2-2.7 2.7v13.3c0 .4.3.7.7.7h11.6c.4 0 .7-.3.7-.7v-13.3c.1-1.5-1.1-2.7-2.5-2.7zm1.2 15.3h-10.2v-12.6c0-.7.5-1.2 1.2-1.2h7.8c.7 0 1.2.5 1.2 1.2v12.6zM-145.5-262.1c-.1-.3-.3-.5-.6-.5l-6.8-1-3-6.1c-.1-.2-.4-.4-.7-.4-.3 0-.5.2-.7.4l-3 6.1-6.8 1c-.3 0-.5.2-.6.5-.1.3 0 .6.2.7l4.9 4.8-1.2 6.7c0 .3.1.5.3.7.1.1.3.1.4.1.1 0 .2 0 .3-.1l6-3.2 6 3.2c.2.1.5.1.8-.1.2-.2.3-.4.3-.7l-1.2-6.7 4.9-4.8c.5-.1.6-.4.5-.6zm-6.3 4.7c-.2.2-.3.4-.2.6l1 5.6-5.1-2.7c-.2-.1-.5-.1-.7 0l-5.1 2.7 1-5.6c0-.2 0-.5-.2-.6l-4.1-4 5.7-.8c.2 0 .4-.2.5-.4l2.5-5.1 2.5 5.1c.1.2.3.4.5.4l5.7.8-4 4z"/><path class="st2" d="M-133.2-270.1h-17.5c-.4 0-.7.3-.7.7 0 .4.3.7.7.7h16.7v25.7c0 .4.3.7.7.7.4 0 .7-.3.7-.7v-26.4c.1-.4-.2-.7-.6-.7zM-179.8-235.5c.4 0 .7-.3.7-.7v-32.5h16.7c.4 0 .7-.3.7-.7 0-.4-.3-.7-.7-.7h-17.5c-.4 0-.7.3-.7.7v33.2c.1.4.4.7.8.7z"/></g><g class="st1"><path class="st2" d="M-88.8-227c.4 0 .7-.3.7-.7v-14.9c0-.4-.3-.7-.7-.7s-.7.3-.7.7v14.9c0 .4.3.7.7.7zM-80.6-236.7v9c0 .4.3.7.7.7.4 0 .7-.3.7-.7v-9c0-.4-.3-.7-.7-.7-.3-.1-.7.3-.7.7zM-71.6-242.6v14.9c0 .4.3.7.7.7.4 0 .7-.3.7-.7v-14.9c0-.4-.3-.7-.7-.7-.4 0-.7.3-.7.7zM-62.7-248.4v20.7c0 .4.3.7.7.7s.7-.3.7-.7v-20.7c0-.4-.3-.7-.7-.7s-.7.3-.7.7zM-53.8-242.6v14.9c0 .4.3.7.7.7.4 0 .7-.3.7-.7v-14.9c0-.4-.3-.7-.7-.7-.4 0-.7.3-.7.7zM-44.1-251.1c-.4 0-.7.3-.7.7v22.6c0 .4.3.7.7.7s.7-.3.7-.7v-22.6c0-.3-.3-.7-.7-.7zM-88.8-256.4c.4 0 .7-.3.7-.7v-12.3c0-.4-.3-.7-.7-.7s-.7.3-.7.7v12.3c0 .4.3.7.7.7zM-79.8-251.5c.4 0 .7-.3.7-.7v-17.1c0-.4-.3-.7-.7-.7-.4 0-.7.3-.7.7v17.1c-.1.3.3.7.7.7zM-70.9-257.4c.4 0 .7-.3.7-.7v-11.3c0-.4-.3-.7-.7-.7-.4 0-.7.3-.7.7v11.3c0 .4.3.7.7.7zM-62-262.2c.4 0 .7-.3.7-.7v-6.5c0-.4-.3-.7-.7-.7s-.7.3-.7.7v6.5c0 .4.3.7.7.7zM-53.1-257.4c.4 0 .7-.3.7-.7v-11.3c0-.4-.3-.7-.7-.7-.4 0-.7.3-.7.7v11.3c0 .4.3.7.7.7zM-44.1-262.2c.4 0 .7-.3.7-.7v-6.5c0-.4-.3-.7-.7-.7s-.7.3-.7.7v6.5c-.1.4.3.7.7.7z"/><path class="st2" d="M-53.1-251.2l-8.5-5.5c-.2-.2-.6-.2-.8 0l-17.4 11.4-8.5-5.6c-.3-.2-.8-.1-1 .2-.2.3-.1.8.2 1l8.9 5.8c.1.1.3.1.4.1.1 0 .3 0 .4-.1l17.4-11.4 8.5 5.6c.3.2.6.2.9-.1l6.1-5.3 1 1.1 1.4-4.1-4.3.8 1 1.1-5.7 5zM-43.2-223.6h-46.5c-.4 0-.7.3-.7.7 0 .4.3.7.7.7h46.5c.4 0 .7-.3.7-.7 0-.4-.3-.7-.7-.7z"/></g><g class="st1"><path class="st2" d="M8.2-240.3H.7c-.4 0-.7.3-.7.7V-222.9c0 .4.3.7.7.7h7.5c.4 0 .7-.3.7-.7v-16.7c.1-.4-.3-.7-.7-.7zm-.7 1.4v3.3h-6v-3.3h6zm0 8.9h-6v-4.1h6v4.1zm0 6.4h-6v-5h6v5zM21.2-256.8h-7.5c-.4 0-.7.3-.7.7v33.3c0 .4.3.7.7.7h7.5c.4 0 .7-.3.7-.7v-33.3c.1-.4-.3-.7-.7-.7zm-.7 1.4v8.1h-6v-8.1h6zm0 19.1h-6v-9.5h6v9.5zm0 12.7h-6v-11.3h6v11.3zM34.3-252h-7.5c-.4 0-.7.3-.7.7v28.4c0 .4.3.7.7.7h7.5c.4 0 .7-.3.7-.7v-28.4c0-.3-.3-.7-.7-.7zm-.8 1.5v6.7h-6v-6.7h6zm0 16h-6v-7.9h6v7.9zm0 10.9h-6v-9.4h6v9.4zM47.3-270.1h-7.5c-.4 0-.7.3-.7.7v46.6c0 .4.3.7.7.7h7.5c.4 0 .7-.3.7-.7V-269.4c0-.4-.3-.7-.7-.7zm-.8 1.4v11.9h-6v-11.9h6zm0 27.3h-6v-13.9h6v13.9zm0 17.8h-6V-240h6v16.4z"/><path class="st2" d="M.7-244.7c.4 0 .7-.3.7-.7v-23.3H34c.4 0 .7-.3.7-.7 0-.4-.3-.7-.7-.7H.7c-.4 0-.7.3-.7.7v24c0 .4.3.7.7.7z"/></g><g class="st1"><path class="st2" d="M-313.3-141.5l-6.2-6.2c-.1-.1-.3-.2-.5-.2s-.4.1-.5.2l-.5.5-3.3-3.3c2-3.1 3-6.6 3-10.3 0-5.1-2-9.9-5.6-13.6-3.6-3.6-8.4-5.6-13.6-5.6-5.1 0-9.9 2-13.6 5.6-3.6 3.6-5.6 8.4-5.6 13.6s2 9.9 5.6 13.6c3.6 3.6 8.4 5.6 13.6 5.6 3.7 0 7.3-1.1 10.3-3l3.3 3.3-.5.5c-.3.3-.3.7 0 1l6.2 6.2c1.1 1.1 2.5 1.6 3.9 1.6s2.9-.5 3.9-1.6c2.3-2.2 2.3-5.7.1-7.9zm-27.2-1.6c-4.7 0-9.2-1.8-12.5-5.2-3.3-3.3-5.2-7.8-5.2-12.5s1.8-9.2 5.2-12.5c3.3-3.3 7.8-5.2 12.5-5.2s9.2 1.8 12.5 5.2c3.3 3.3 5.2 7.8 5.2 12.5s-1.8 9.2-5.2 12.5c-3.3 3.4-7.7 5.2-12.5 5.2zm11.5-2.4a16.32 16.32 0 003.7-3.7l3.1 3.1-3.8 3.8-3-3.2zm3.2 5.2l.5-.5 4.8-4.8.5-.5 4.8 4.8-5.8 5.8-4.8-4.8zm11.5 5.7c-1.6 1.6-4.1 1.6-5.7.1l5.8-5.8c1.5 1.6 1.5 4.1-.1 5.7z"/><path class="st2" d="M-330.7-170.6c-2.6-2.6-6.1-4-9.8-4-3.7 0-7.2 1.4-9.8 4-2.6 2.6-4 6.1-4 9.8s1.4 7.2 4 9.8c2.6 2.6 6.1 4 9.8 4 3.7 0 7.2-1.4 9.8-4 2.6-2.6 4-6.1 4-9.8s-1.4-7.2-4-9.8zm-1 18.5c-2.3 2.3-5.4 3.6-8.7 3.6-3.3 0-6.4-1.3-8.7-3.6-2.3-2.3-3.6-5.4-3.6-8.7 0-.9.1-1.7.3-2.5l4.6 4.6c-.3.5-.6 1.2-.6 1.9 0 1.9 1.5 3.4 3.4 3.4s3.4-1.5 3.4-3.4c0-.6-.2-1.2-.4-1.7l3.6-3.2c.6.4 1.3.7 2 .7s1.3-.2 1.9-.6l5.5 5.5c-.7 1.5-1.6 2.9-2.7 4zm-15.4-4.8c0-1.1.9-2 2-2s2 .9 2 2-.9 2-2 2-2-.9-2-2zm8.7-7.6c0-1.1.9-2 2-2s2 .9 2 2-.9 2-2 2-2-.9-2-2zm4.8 1.8c.3-.5.6-1.2.6-1.9 0-1.9-1.5-3.4-3.4-3.4s-3.4 1.5-3.4 3.4c0 .6.2 1.2.4 1.7l-3.6 3.2c-.6-.4-1.3-.7-2-.7s-1.3.2-1.9.6l-5.1-5.1c.6-1.7 1.6-3.3 2.9-4.6 2.3-2.3 5.4-3.6 8.7-3.6 3.3 0 6.4 1.3 8.7 3.6 2.3 2.3 3.6 5.4 3.6 8.7 0 1.1-.2 2.2-.4 3.2l-5.1-5.1z"/></g><g class="st1"><path class="st2" d="M-225.9-171.4c-.1-.1-.3-.2-.5-.2-.1 0-12.5.4-20.8-8.2-.3-.3-.8-.3-1 0-8.2 8.6-20.7 8.2-20.8 8.2-.2 0-.4.1-.5.2-.1.1-.2.3-.2.5 0 30 21.6 38.8 21.8 38.8.1 0 .2.1.3.1.1 0 .2 0 .3-.1.2-.1 21.8-8.9 21.8-38.8-.2-.2-.2-.4-.4-.5zm-21.8 37.9c-2.4-1.1-20.3-10.1-20.6-36.6 2.9 0 13.1-.7 20.6-8.1 7.6 7.4 17.7 8.1 20.6 8.1-.3 26.5-18.2 35.5-20.6 36.6z"/><path class="st2" d="M-248.2-172c-5.5 5.6-13.9 5.4-14 5.4-.2 0-.4.1-.5.2-.1.1-.2.3-.2.5 0 20.1 14.9 26.1 15 26.1h.6c.2-.1 15-6 15-26.1 0-.2-.1-.4-.2-.5-.1-.1-.3-.2-.5-.2-.1 0-8.5.3-14-5.4-.5-.3-1-.3-1.2 0zm14.3 6.8c-.3 17.3-11.8 23.1-13.8 23.9-1.9-.8-13.5-6.8-13.8-23.9 2.2-.1 8.8-.6 13.8-5.3 5 4.7 11.6 5.3 13.8 5.3z"/><path class="st2" d="M-252.8-160.4c0 1.5.7 3 1.9 3.9l-2.1 6.9c-.1.2 0 .5.1.6.1.2.4.3.6.3h9.3c.2 0 .4-.1.6-.3.1-.2.2-.4.1-.6l-2.1-6.9c1.2-1 1.9-2.4 1.9-3.9 0-2.8-2.3-5.1-5.1-5.1-2.9 0-5.2 2.2-5.2 5.1zm8.7 0c0 1.2-.6 2.4-1.7 3-.3.2-.4.5-.3.8l2 6.4h-7.4l2-6.4c.1-.3 0-.6-.3-.8-1-.7-1.7-1.8-1.7-3 0-2 1.6-3.6 3.6-3.6 2.2-.1 3.8 1.6 3.8 3.6z"/></g><g class="st1"><path class="st2" d="M-156.5-142.2c-.4 0-.7.3-.7.7 0 .4.3.7.7.7.4 0 .7-.3.7-.7 0-.3-.3-.7-.7-.7z"/><path class="st2" d="M-136.1-180h-40.7c-2 0-3.6 1.6-3.6 3.6v34.9c0 2 1.6 3.6 3.6 3.6h10.9v4.4h-5.1c-.4 0-.7.3-.7.7 0 .4.3.7.7.7h29.1c.4 0 .7-.3.7-.7 0-.4-.3-.7-.7-.7h-5.1v-4.4h10.9c2 0 3.6-1.6 3.6-3.6v-34.9c0-2-1.6-3.6-3.6-3.6zm-42.9 3.7c0-1.2 1-2.2 2.2-2.2h40.7c1.2 0 2.2 1 2.2 2.2v31.3h-4.8v-14.7c0-.4-.3-.7-.7-.7-.4 0-.7.3-.7.7v14.7h-5.3v-18.6c0-.4-.3-.7-.7-.7-.4 0-.7.3-.7.7v18.6h-5.3v-14.3c0-.4-.3-.7-.7-.7-.4 0-.7.3-.7.7v14.3h-5.3v-9.9c0-.4-.3-.7-.7-.7-.4 0-.7.3-.7.7v9.9h-5.3v-11.8c0-.4-.3-.7-.7-.7-.4 0-.7.3-.7.7v11.8h-5.3v-8c0-.4-.3-.7-.7-.7s-.7.3-.7.7v8h-4.8v-31.3zm30.5 42.9h-16v-4.4h16v4.4zm14.6-8c0 1.2-1 2.2-2.2 2.2h-40.7c-1.2 0-2.2-1-2.2-2.2v-2.2h45.1v2.2z"/><path class="st2" d="M-166.5-163.4c-.2-.1-.4 0-.6.1l-6.8 3.9c-.3.2-.5.6-.3 1 .1.2.4.4.6.4.1 0 .2 0 .4-.1l6.5-3.7 6.5 1.9c.2.1.4 0 .6-.1l13.2-8.5 6.4 3.7c.3.2.8.1 1-.3.2-.3.1-.8-.3-1l-6.8-3.9c-.2-.1-.5-.1-.8 0l-13.3 8.6-6.3-2zM-165.9-167.8h6c.4 0 .7-.3.7-.7 0-.4-.3-.7-.7-.7h-6c-.4 0-.7.3-.7.7 0 .4.3.7.7.7zM-173.5-167.8h3.7c.4 0 .7-.3.7-.7 0-.4-.3-.7-.7-.7h-3.7c-.4 0-.7.3-.7.7 0 .4.3.7.7.7zM-160.7-172.6h7.6c.4 0 .7-.3.7-.7 0-.4-.3-.7-.7-.7h-7.6c-.4 0-.7.3-.7.7-.1.3.3.7.7.7zM-173.5-172.6h8.8c.4 0 .7-.3.7-.7 0-.4-.3-.7-.7-.7h-8.8c-.4 0-.7.3-.7.7 0 .3.3.7.7.7z"/></g><g class="st1"><path class="st2" d="M-45-156l1.9-4.9c.1-.3 0-.6-.2-.8l-3.8-3.6-.4-5.3c0-.3-.2-.5-.5-.6l-5-1.6-2.7-4.6c-.1-.3-.4-.4-.7-.4l-5.2.8-4.4-2.9c-.2-.2-.6-.2-.8 0l-4.4 2.9-5.2-.8c-.3 0-.6.1-.7.4l-2.7 4.6-5 1.6c-.3.1-.5.3-.5.6l-.4 5.3-3.8 3.6c-.2.2-.3.5-.2.8l1.9 4.9-1.9 4.9c-.1.3 0 .6.2.8l3.8 3.6.4 5.3c0 .3.2.5.5.6l5 1.6 2.7 4.6c.1.3.4.4.7.4l5.2-.8 4.4 2.9c.1.1.3.1.4.1.1 0 .3 0 .4-.1l4.4-2.9 5.2.8c.3 0 .6-.1.7-.4l2.7-4.6 5-1.6c.3-.1.5-.3.5-.6l.4-5.3 3.8-3.6c.2-.2.3-.5.2-.8L-45-156zm-3.3 8.5c-.1.1-.2.3-.2.5l-.4 5-4.8 1.5c-.2.1-.3.2-.4.3l-2.6 4.4-5-.7c-.2 0-.4 0-.5.1l-4.2 2.8-4.2-2.8c-.1-.1-.3-.1-.4-.1h-.1l-5 .7-2.6-4.4c-.1-.2-.2-.3-.4-.3L-84-142l-.4-5c0-.2-.1-.3-.2-.5l-3.7-3.5 1.8-4.7c.1-.2.1-.4 0-.5l-1.8-4.7 3.7-3.5c.1-.1.2-.3.2-.5l.4-5 4.8-1.5c.2-.1.3-.2.4-.3l2.6-4.4 5 .7c.2 0 .4 0 .5-.1l4.2-2.8 4.2 2.8c.1.1.3.1.5.1l5-.7 2.6 4.4c.1.2.2.3.4.3l4.8 1.5.4 5c0 .2.1.3.2.5l3.7 3.5-1.8 4.7c-.1.2-.1.4 0 .5l1.8 4.7-3.6 3.5z"/><path class="st2" d="M-51.9-156.7c-.4 0-.7.3-.7.7 0 7.6-6.2 13.8-13.8 13.8-7.6 0-13.8-6.2-13.8-13.8 0-7.6 6.2-13.8 13.8-13.8 2.9 0 5.6.9 8 2.5.3.2.8.2 1-.2.2-.3.2-.8-.2-1-2.6-1.8-5.6-2.8-8.8-2.8-8.4 0-15.3 6.9-15.3 15.3s6.9 15.3 15.3 15.3 15.3-6.9 15.3-15.3c-.1-.4-.4-.7-.8-.7z"/><path class="st2" d="M-73.7-161.6c-.2-.2-.5-.3-.8-.2-.3.1-.4.4-.4.7v7.3c0 .2.1.4.2.5l7.5 7.5c.1.1.3.2.5.2s.4-.1.5-.2l14.7-14.7c.1-.1.2-.3.2-.5v-7.3c0-.3-.2-.6-.4-.7-.3-.1-.6-.1-.8.2l-14.2 14.2-7-7zm21-4.9v5.2l-14 14-6.8-6.8v-5.2l6.3 6.3c.3.3.8.3 1 0l13.5-13.5z"/></g><g class="st1"><path class="st2" d="M12.1-144.4c-.4.2-.5.6-.4 1 1.9 4.2 1.5 8.8 1.2 10.6-.1.4.2.8.6.8h.1c.4 0 .7-.3.7-.6.3-2.4.6-7-1.4-11.4 0-.4-.4-.5-.8-.4z"/><path class="st2" d="M47.6-154.7c-4.1-6.4-4.4-8.2-4.4-8.3-1.9-15.8-14.6-17-18.4-17h-1.2c-1.4 0-10.8.3-15.7 7-.8-.6-1.8-1-2.9-1-1.3 0-2.5.5-3.4 1.4S0-170.4 0-169.1c0 1.3.5 2.5 1.4 3.4.9.9 2.1 1.4 3.3 1.4 0 .5-.1 1-.1 1.6v.1c0 3 .2 5.5.8 7.8.1.4.5.6.9.5.4-.1.6-.5.5-.9-.5-2.1-.7-4.6-.7-7.5v-.1c0-.6 0-1.2.1-1.8.6-.2 1.1-.4 1.5-.8l3.5 3.5c-.8 1-1.3 2.3-1.3 3.6 0 1.4.5 2.6 1.3 3.6l-3.5 3.5c-1.9-1.4-4.6-1.3-6.3.5-.9 1.2-1.4 2.4-1.4 3.7s.5 2.5 1.4 3.4c.9.9 2.1 1.4 3.4 1.4 1.3 0 2.5-.5 3.4-1.4 1.7-1.7 1.9-4.4.5-6.3l3.5-3.5c1 .8 2.3 1.3 3.6 1.3 1.4 0 2.6-.5 3.6-1.3l3.5 3.5c-.6.8-1 1.8-1 2.9 0 1.3.5 2.5 1.4 3.4.9.9 2.1 1.4 3.4 1.4s2.5-.5 3.4-1.4c1.9-1.9 1.9-5 0-6.9-1.7-1.7-4.4-1.9-6.3-.5l-3.5-3.5c.8-1 1.3-2.3 1.3-3.6 0-1.4-.5-2.6-1.3-3.6l3.5-3.5c.8.6 1.8 1 2.9 1 1.3 0 2.5-.5 3.4-1.4 1.9-1.9 1.9-5 0-6.9-.9-.9-2.1-1.4-3.4-1.4s-2.5.5-3.4 1.4c-.9.9-1.4 2.1-1.4 3.4 0 1.1.3 2 1 2.9l-3.5 3.5c-1-.8-2.3-1.3-3.6-1.3s-2.6.5-3.6 1.3l-3.5-3.5c1.3-1.7 1.3-4 0-5.7 4.3-6.1 12.6-6.5 14.7-6.5h1.3c3.5 0 15.3 1.1 17 15.6 0 .2.2 2.1 4.6 9 0 0 .3.4.2.8-.1.3-.3.5-.6.7-1.7 1-3.8 1.8-3.8 1.8-.3.1-.5.4-.5.8 0 .1.6 5.2.1 7.7-.2 1.1-2.6 1.8-6 1.8-2 0-3.1 1.3-3.1 3.6v4c0 .4.3.7.7.7.4 0 .7-.3.7-.7v-4c0-1.9.9-2.2 1.7-2.2 2.6 0 6.9-.4 7.4-2.9.4-2.2.1-6.2 0-7.6.8-.3 2.2-1 3.5-1.7.9-.5 1.2-1.2 1.3-1.7.3-1.1-.3-1.9-.3-2zm-40.3-12c-1.3 1.3-3.5 1.3-4.8 0-.6-.6-1-1.5-1-2.4 0-.9.4-1.8 1-2.4.6-.6 1.5-1 2.4-1 .9 0 1.8.4 2.4 1 1.3 1.3 1.3 3.5 0 4.8zm0 22.1c-1.3 1.3-3.5 1.3-4.8 0-.6-.6-1-1.5-1-2.4 0-.9.4-1.8 1-2.4.7-.7 1.5-1 2.4-1s1.8.3 2.4 1c1.3 1.3 1.3 3.5 0 4.8zm17.3-4.8c.7-.7 1.5-1 2.4-1s1.8.3 2.4 1c1.3 1.3 1.3 3.5 0 4.8-1.3 1.3-3.5 1.3-4.8 0-.6-.6-1-1.5-1-2.4 0-.9.3-1.8 1-2.4zm0-22.1c.6-.6 1.5-1 2.4-1 .9 0 1.8.4 2.4 1 1.3 1.3 1.3 3.5 0 4.8-1.3 1.3-3.5 1.3-4.8 0-.6-.6-1-1.5-1-2.4 0-.9.3-1.8 1-2.4zm-8.7 9c2.5 0 4.5 2 4.5 4.5s-2 4.4-4.5 4.4-4.5-2-4.5-4.4c.1-2.5 2.1-4.5 4.5-4.5z"/></g><path class="st3" d="M-335.6-91.6c-13.2 0-24 10.8-24 24s10.8 24 24 24 24-10.8 24-24-10.8-24-24-24zm.7 46.6v-3.1c0-.4-.3-.7-.7-.7s-.7.3-.7.7v3.1c-5.2-.2-10-2.1-13.7-5.2 3.4-1.7 3.9-4.8 3.9-4.9.2-1.4.4-4.2-.8-6.8-.3-.8-.8-1.3-1.3-2-1.3-1.6-2.7-3.4-2.7-8.9 0-8.5 8.3-9 9.9-9h.7c2 0 8.7.6 9.6 8.9 0 .3.3 1.5 2.8 5.4 0 0 .1.2.1.3 0 .1-.1.1-.2.2-1 .6-2.2 1-2.2 1-.3.1-.5.4-.5.8.1.8.3 3.2 0 4.4-.1.3-1.1.8-3.2.8h-.3-.2c-1.2 0-1.7.7-1.7 1.3v2.9c0 1.5.6 2.9 1.6 3.9s2.4 1.6 3.9 1.6c2.7 0 5.1.6 7.1 1.9-3.4 2-7.3 3.2-11.4 3.4zm13.1-11.4c0 .2-.9.6-2.8.6-.8 0-2 .6-2 2.2v2.1c-1.3-.3-2.7-.5-4.1-.5-1 0-2.1-.4-2.9-1.2-.8-.8-1.2-1.8-1.2-2.9v-2.7h.7c1.9 0 4.3-.3 4.6-2 .2-1.2.1-3.3 0-4.3.5-.2 1.2-.5 1.9-.9.6-.4.9-.8.9-1.2.2-.7-.2-1.3-.3-1.4-2.3-3.7-2.5-4.7-2.5-4.8-.1-.7-.2-1.3-.4-1.9 2.2.1 7.2 1.2 7.9 7.8 0 .3.2 1.4 2.5 4.9 0 0 .1.1 0 .2 0 0 0 .1-.2.2-.9.5-1.9.9-2 .9-.3.1-.5.4-.5.8.4.9.6 3.1.4 4.1zm-.5 7c-.9-.6-1.8-1.1-2.8-1.5v-2.6c0-.7.5-.7.5-.7 1.8 0 3.9-.3 4.2-1.8.2-1.1.1-2.9 0-3.8.4-.2 1.1-.5 1.7-.8.6-.3.8-.8.9-1.1.1-.7-.2-1.2-.3-1.3-2.1-3.2-2.2-4.2-2.3-4.2-.8-6.7-5.6-9.1-9.9-9.2-1.9-4.9-6.3-6.8-10.3-6.8h-.7c-1.2 0-11.3.3-11.4 10.5 0 6 1.7 8.1 3.1 9.7.5.6.9 1.1 1.1 1.6 1.1 2.4.9 5 .7 6 0 0-.4 2.8-3.6 4.1-4.1-3.9-6.7-9.4-6.9-15.5h3.1c.4 0 .7-.3.7-.7 0-.4-.3-.7-.7-.7h-3.1c.4-11.9 9.9-21.4 21.8-21.8v3.1c0 .4.3.7.7.7s.7-.3.7-.7V-90c11.9.4 21.4 9.9 21.8 21.8h-3.1c-.4 0-.7.3-.7.7 0 .4.3.7.7.7h3.1c-.1 7.1-3.6 13.4-9 17.4z"/><g class="st1"><path class="st2" d="M-223.7-79.2V-87c0-.2-.1-.4-.2-.5l-3.9-3.9c-.1-.1-.3-.2-.5-.2h-38.8c-.2 0-.4.1-.5.2l-3.9 3.9c-.1.1-.2.3-.2.5v7.8c0 .2.1.4.2.5l3.4 3.4-3.4 3.4c-.1.1-.2.3-.2.5v7.8c0 .2.1.4.2.5l3.4 3.4-3.4 3.4c-.1.1-.2.3-.2.5v7.8c0 .2.1.4.2.5l3.9 3.9c.1.1.3.2.5.2h38.8c.2 0 .4-.1.5-.2l3.9-3.9c.1-.1.2-.3.2-.5v-7.8c0-.2-.1-.4-.2-.5l-3.4-3.4 3.4-3.4c.1-.1.2-.3.2-.5v-7.8c0-.2-.1-.4-.2-.5l-3.4-3.4 3.4-3.4c.1-.1.2-.3.2-.5zm-1.5 30.7l-3.5 3.5h-38.2l-3.5-3.5v-7.2l3.5-3.5h38.2l3.5 3.5v7.2zm0-15.5l-3.5 3.5h-38.2l-3.5-3.5v-7.2l3.5-3.5h38.2l3.5 3.5v7.2zm0-15.5l-3.5 3.5h-38.2l-3.5-3.5v-7.2l3.5-3.5h38.2l3.5 3.5v7.2z"/><path class="st2" d="M-263.2-86.7c-2 0-3.6 1.6-3.6 3.6s1.6 3.6 3.6 3.6 3.6-1.6 3.6-3.6-1.6-3.6-3.6-3.6zm0 5.8c-1.2 0-2.2-1-2.2-2.2 0-1.2 1-2.2 2.2-2.2s2.2 1 2.2 2.2c-.1 1.2-1 2.2-2.2 2.2zM-252.6-86.7c-2 0-3.6 1.6-3.6 3.6s1.6 3.6 3.6 3.6 3.6-1.6 3.6-3.6c.1-2-1.6-3.6-3.6-3.6zm0 5.8c-1.2 0-2.2-1-2.2-2.2 0-1.2 1-2.2 2.2-2.2s2.2 1 2.2 2.2c0 1.2-1 2.2-2.2 2.2zM-229.8-86.2h-14.5c-.4 0-.7.3-.7.7v4.8c0 .4.3.7.7.7h14.5c.4 0 .7-.3.7-.7v-4.8c0-.4-.3-.7-.7-.7zm-.7 4.8h-13.1v-3.4h13.1v3.4zM-263.2-71.2c-2 0-3.6 1.6-3.6 3.6s1.6 3.6 3.6 3.6 3.6-1.6 3.6-3.6-1.6-3.6-3.6-3.6zm0 5.8c-1.2 0-2.2-1-2.2-2.2 0-1.2 1-2.2 2.2-2.2s2.2 1 2.2 2.2c-.1 1.2-1 2.2-2.2 2.2zM-252.6-71.2c-2 0-3.6 1.6-3.6 3.6s1.6 3.6 3.6 3.6 3.6-1.6 3.6-3.6c.1-2-1.6-3.6-3.6-3.6zm0 5.8c-1.2 0-2.2-1-2.2-2.2 0-1.2 1-2.2 2.2-2.2s2.2 1 2.2 2.2c0 1.2-1 2.2-2.2 2.2zM-229.8-70.7h-14.5c-.4 0-.7.3-.7.7v4.8c0 .4.3.7.7.7h14.5c.4 0 .7-.3.7-.7V-70c0-.4-.3-.7-.7-.7zm-.7 4.8h-13.1v-3.4h13.1v3.4zM-263.2-55.7c-2 0-3.6 1.6-3.6 3.6s1.6 3.6 3.6 3.6 3.6-1.6 3.6-3.6c0-1.9-1.6-3.6-3.6-3.6zm0 5.8c-1.2 0-2.2-1-2.2-2.2 0-1.2 1-2.2 2.2-2.2s2.2 1 2.2 2.2c-.1 1.3-1 2.2-2.2 2.2zM-252.6-55.7c-2 0-3.6 1.6-3.6 3.6s1.6 3.6 3.6 3.6 3.6-1.6 3.6-3.6c.1-1.9-1.6-3.6-3.6-3.6zm0 5.8c-1.2 0-2.2-1-2.2-2.2 0-1.2 1-2.2 2.2-2.2s2.2 1 2.2 2.2c0 1.3-1 2.2-2.2 2.2zM-229.8-55.2h-14.5c-.4 0-.7.3-.7.7v4.8c0 .4.3.7.7.7h14.5c.4 0 .7-.3.7-.7v-4.8c0-.4-.3-.7-.7-.7zm-.7 4.9h-13.1v-3.4h13.1v3.4z"/></g><path class="st3" d="M-133.2-76.6h-8V-84c0-.2-.1-.4-.2-.5l-6.8-6.8c-.1-.1-.3-.2-.5-.2H-171c-.4 0-.7.3-.7.7v14.3h-8c-.4 0-.7.3-.7.7 0 .4.3.7.7.7h2.6l13.4 15.2 3 15.8c0 .3.2.5.5.6h.2c.2 0 .4-.1.5-.2l8.3-8.1c.1-.1.2-.2.2-.3l1.9-7.7 13.4-15.2h2.6c.4 0 .7-.3.7-.7-.1-.6-.4-.9-.8-.9zM-148-89.1l4.3 4.3h-4.3v-4.3zm-22.3-1h20.8v6.1c0 .4.3.7.7.7h6.1v6.7h-27.6v-13.5zm17.8 37.3l-7.2 7-2.6-13.8h11.4l-1.6 6.8zm2.3-8.2h-2l4.1-9.7c.2-.4 0-.8-.4-1-.4-.2-.8 0-1 .4l-4.3 10.3h-1.9v-10c0-.4-.3-.7-.7-.7-.4 0-.7.3-.7.7v10h-1.9l-4.3-10.3c-.2-.4-.6-.5-1-.4-.4.2-.5.6-.4 1l4.1 9.7h-2l-12.5-14.1H-137.6L-150.2-61z"/><g class="st1"><path class="st2" d="M-66.5-91.6c-13.2 0-24 10.8-24 24s10.8 24 24 24 24-10.8 24-24-10.7-24-24-24zm.8 1.5c6.9.2 13 3.5 17 8.6l-3.5 2.6a18.2 18.2 0 00-13.5-6.8v-4.4zm0 5.8c4.8.2 9.3 2.5 12.3 6.2l-3.5 2.6c-2.2-2.6-5.3-4.3-8.8-4.5v-4.3zm-.8 39.3c-7.8 0-14.7-4-18.8-10l8.7-5.4c2.3 3.2 6 5.2 10.1 5.2 2.6 0 5.1-.8 7.2-2.4l6.4 7.9c-3.7 3-8.4 4.7-13.6 4.7zm14.9-5.6l-6.9-8.4c-.3-.3-.7-.4-1-.1-1.9 1.6-4.4 2.5-6.9 2.5-5.5 0-10.1-4.1-10.8-9.5-.1-.4-.4-.7-.8-.6-.4.1-.7.4-.6.8.2 1.5.7 3 1.4 4.3l-8.6 5.4c-1.9-3.3-3-7.2-3-11.3 0-12.2 9.7-22.1 21.8-22.5v10.2c-1 .1-1.9.2-2.8.5-.4.1-.6.5-.5.9.1.4.5.6.9.5 1-.3 2.1-.5 3.1-.5 4.6 0 8.8 2.9 10.3 7.3.1.3.4.5.7.5h.2c.4-.1.6-.5.4-.9-.3-.9-.8-1.8-1.3-2.7l8.2-6c2.5 3.6 4 8 4 12.7-.1 6.7-3.1 12.8-7.8 16.9z"/><path class="st2" d="M-68.6-75.7h-6.2c-.4 0-.7.3-.7.7 0 .4.3.7.7.7h6.2c.4 0 .7-.3.7-.7 0-.4-.3-.7-.7-.7zM-82.9-74.3h4.2c.4 0 .7-.3.7-.7 0-.4-.3-.7-.7-.7h-4.2c-.4 0-.7.3-.7.7 0 .4.3.7.7.7zM-74.4-70.9h-8.5c-.4 0-.7.3-.7.7 0 .4.3.7.7.7h8.5c.4 0 .7-.3.7-.7 0-.4-.3-.7-.7-.7zM-48-68.3h-3.6c-.4 0-.7.3-.7.7 0 .4.3.7.7.7h3.6c.4 0 .7-.3.7-.7 0-.4-.3-.7-.7-.7zM-62.9-66.8h7.5c.4 0 .7-.3.7-.7 0-.4-.3-.7-.7-.7h-7.5c-.4 0-.7.3-.7.7 0 .3.3.7.7.7zM-50.9-63.4h-3.9c-.4 0-.7.3-.7.7 0 .4.3.7.7.7h3.9c.4 0 .7-.3.7-.7 0-.4-.3-.7-.7-.7zM-58.7-63.4h-4.2c-.4 0-.7.3-.7.7 0 .4.3.7.7.7h4.2c.4 0 .7-.3.7-.7.1-.4-.3-.7-.7-.7zM-73-54.5c-.4 0-.7.3-.7.7 0 .4.3.7.7.7.4 0 .7-.3.7-.7.1-.4-.3-.7-.7-.7zM-81.7-55.5c-.4 0-.7.3-.7.7 0 .4.3.7.7.7.4 0 .7-.3.7-.7 0-.4-.3-.7-.7-.7zM-76.8-58.4c-.4 0-.7.3-.7.7 0 .4.3.7.7.7.4 0 .7-.3.7-.7 0-.4-.3-.7-.7-.7zM-74.9-50.7c-.4 0-.7.3-.7.7 0 .4.3.7.7.7.4 0 .7-.3.7-.7 0-.3-.3-.7-.7-.7zM-76.8-54.5c-.4 0-.7.3-.7.7 0 .4.3.7.7.7.4 0 .7-.3.7-.7 0-.4-.3-.7-.7-.7zM-70.1-51.6c-.4 0-.7.3-.7.7 0 .4.3.7.7.7.4 0 .7-.3.7-.7.1-.4-.3-.7-.7-.7zM-66.2-48.7c-.4 0-.7.3-.7.7 0 .4.3.7.7.7.4 0 .7-.3.7-.7.1-.4-.3-.7-.7-.7zM-66.2-53.6c-.4 0-.7.3-.7.7 0 .4.3.7.7.7.4 0 .7-.3.7-.7.1-.3-.3-.7-.7-.7zM-62.3-51.6c-.4 0-.7.3-.7.7 0 .4.3.7.7.7.4 0 .7-.3.7-.7 0-.4-.3-.7-.7-.7zM-60.1-53.8c0 .4.3.7.7.7.4 0 .7-.3.7-.7 0-.4-.3-.7-.7-.7-.4 0-.7.3-.7.7zM-57.4-48.2c.4 0 .7-.3.7-.7 0-.4-.3-.7-.7-.7-.4 0-.7.3-.7.7-.1.3.3.7.7.7z"/></g><g class="st1"><path class="st2" d="M45.9-77.4c-.7-1.5-1.5-3-2.5-4.3-4-5.5-10.2-9.1-16.9-9.8-.2 0-.4 0-.6.2-.2.1-.2.3-.2.5V-69c0 .3.1.5.4.6l18.8 10.9c.1.1.2.1.4.1h.2c.2-.1.4-.2.4-.4 1.4-3.1 2.1-6.4 2.1-9.8 0-3.4-.7-6.7-2.1-9.8zm-1 18.2L27.2-69.4v-20.5c6 .8 11.5 4.1 15.1 9.1.9 1.3 1.7 2.6 2.4 4.1 1.3 2.9 2 6 2 9.2-.2 2.8-.7 5.6-1.8 8.3z"/><path class="st2" d="M43.2-54.6l-20.9-12v-24.1c0-.2-.1-.4-.2-.5-.2-.1-.4-.2-.6-.2-6.7.7-12.9 4.3-16.9 9.8-1 1.3-1.8 2.8-2.5 4.3C.7-74.3 0-71 0-67.6 0-64.3.7-61 2-58v.1c.7 1.5 1.5 3 2.5 4.3 0 0 0 .1.1.1 4 5.5 10.1 9 16.9 9.7.8.1 1.7.1 2.5.1s1.7 0 2.5-.1c6.7-.7 12.9-4.3 16.9-9.8.1-.2.2-.4.1-.6 0-.1-.1-.3-.3-.4zm-16.9 9.4c-1.6.2-3.1.2-4.7 0-6.3-.7-12.1-4-15.9-9.2 0 0 0-.1-.1-.1-.9-1.2-1.6-2.5-2.2-3.9v-.1c-1.3-2.9-2-6-2-9.2 0-3.2.7-6.3 2-9.2.6-1.4 1.4-2.8 2.4-4.1 3.6-5 9.1-8.2 15.1-9.1v23.7c0 .3.1.5.4.6l20.5 11.9c-3.8 5-9.4 8.1-15.5 8.7z"/><path class="st2" d="M20.1-58.1c0 .4.3.7.7.7H28c.4 0 .7-.3.7-.7 0-.4-.3-.7-.7-.7h-7.2c-.4-.1-.7.3-.7.7zM12.7-57.4h4.2c.4 0 .7-.3.7-.7 0-.4-.3-.7-.7-.7h-4.2c-.4 0-.7.3-.7.7 0 .4.3.7.7.7zM28-54H12.7c-.4 0-.7.3-.7.7 0 .4.3.7.7.7H28c.4 0 .7-.3.7-.7 0-.4-.3-.7-.7-.7zM28-49.2h-6.5c-.4 0-.7.3-.7.7 0 .4.3.7.7.7H28c.4 0 .7-.3.7-.7 0-.3-.3-.7-.7-.7zM40.1-80.1h-2.3c-.4 0-.7.3-.7.7 0 .4.3.7.7.7h2.3c.4 0 .7-.3.7-.7 0-.4-.3-.7-.7-.7zM30.7-78.6H34c.4 0 .7-.3.7-.7 0-.4-.3-.7-.7-.7h-3.3c-.4 0-.7.3-.7.7-.1.3.3.7.7.7zM40.1-75.2h-9.5c-.4 0-.7.3-.7.7 0 .4.3.7.7.7h9.5c.4 0 .7-.3.7-.7 0-.4-.3-.7-.7-.7zM40.1-70.4h-2.7c-.4 0-.7.3-.7.7 0 .4.3.7.7.7h2.7c.4 0 .7-.3.7-.7 0-.4-.3-.7-.7-.7z"/></g><g class="st1"><path class="st2" d="M-319 30.7l7.1-7.1c.2-.2.3-.5.2-.8-.1-.3-.4-.4-.7-.4h-3c-.8-11.6-10.4-20.5-22.1-20.5-12.2 0-22.2 9.9-22.2 22.2s9.9 22.2 22.2 22.2c.7 0 1.5 0 2.4-.1.4 0 .6-.4.6-.7v-7.1c0-.2-.1-.4-.3-.6-.2-.1-.4-.2-.6-.2-.8.1-1.5.2-2.2.2-7.5 0-13.7-6.1-13.7-13.7 0-7.5 6.1-13.7 13.7-13.7 6.9 0 12.8 5.2 13.6 12h-2.7c-.3 0-.6.2-.7.4-.1.3 0 .6.2.8l7.1 7.1c.4.3.8.3 1.1 0zm-5.9-6.9h1.8c.2 0 .4-.1.5-.2.1-.1.2-.3.2-.5-.5-8-7.1-14.2-15.1-14.2-8.4 0-15.1 6.8-15.1 15.1s6.8 15.1 15.1 15.1c.5 0 1.1 0 1.6-.1v5.6c-.6 0-1.1.1-1.6.1-11.4 0-20.7-9.3-20.7-20.7 0-11.4 9.3-20.7 20.7-20.7 11.1 0 20.2 8.7 20.7 19.8 0 .4.4.7.8.7h1.9l-5.4 5.4-5.4-5.4z"/><path class="st2" d="M-327.1 42.3c2.5 0 4.6-2.1 4.6-4.6 0-2.5-2.1-4.6-4.6-4.6-2.5 0-4.6 2.1-4.6 4.6 0 .4.3.7.7.7.4 0 .7-.3.7-.7 0-1.7 1.4-3.2 3.2-3.2 1.7 0 3.2 1.4 3.2 3.2 0 1.7-1.4 3.2-3.2 3.2-2.5 0-4.6 2.1-4.6 4.6 0 .4.3.7.7.7h7.8c.4 0 .7-.3.7-.7 0-.4-.3-.7-.7-.7h-6.9c.3-1.5 1.5-2.5 3-2.5zM-312.4 35c-.4 0-.7.3-.7.7v4.1h-5.2v-6.1c0-.4-.3-.7-.7-.7-.4 0-.7.3-.7.7v6.8c0 .4.3.7.7.7h5.9v4.1c0 .4.3.7.7.7.4 0 .7-.3.7-.7v-9.7c.1-.3-.3-.6-.7-.6zM-337.5 12c-.4 0-.7.3-.7.7v8.2c-1.4.3-2.4 1.6-2.4 3.1 0 1.7 1.4 3.2 3.2 3.2 1.5 0 2.7-1 3.1-2.4h4.3c.4 0 .7-.3.7-.7 0-.4-.3-.7-.7-.7h-4.3c-.3-1.2-1.2-2.1-2.3-2.3v-8.2c-.2-.6-.5-.9-.9-.9zm1.7 12c0 .9-.8 1.7-1.7 1.7-.9 0-1.7-.8-1.7-1.7 0-.9.8-1.7 1.7-1.7.9 0 1.7.8 1.7 1.7z"/></g><g class="st1"><path class="st2" d="M-227.8 34.6c-2 0-3.7 1.5-4 3.4h-4.8c-1.7 0-3.2-1.4-3.2-3.2v-5.1h7.9c4.5 0 8.2-3.7 8.2-8.2 0-4.8-4.1-8.6-8.9-8.2v-.8c0-5.3-4.3-9.6-9.6-9.6-2.6 0-5 1.1-6.8 2.8-1.1-3.2-4.1-5.4-7.5-5.4-4.4 0-8 3.6-8 8v.5c-3.9-.2-7.2 2.9-7.2 6.8 0 3.8 3.1 6.8 6.8 6.8h.9c0 .2-.1.5-.1.7 0 3.6 2.9 6.5 6.5 6.5h1.9v5.1c0 1.7-1.4 3.2-3.2 3.2h-4.8c-.3-1.9-2-3.4-4-3.4-2.3 0-4.1 1.8-4.1 4.1s1.8 4.1 4.1 4.1c2 0 3.7-1.5 4-3.4h4.8c2.5 0 4.6-2.1 4.6-4.6V20.6c0-.4-.3-.7-.7-.7-.4 0-.7.3-.7.7v7.6h-1.9c-2.8 0-5.1-2.3-5.1-5.1 0-2.4 1.7-4.5 4.1-5 .2 0 .4-.2.5-.4.1-.2.1-.5 0-.7-.4-.6-.5-1.3-.5-2.1 0-2.3 1.9-4.2 4.2-4.2 1 0 2 .4 2.8 1.1.2.2.5.2.7.1.3-.1.4-.3.5-.6.5-4 4-7.1 8.1-7.1 4.5 0 8.2 3.7 8.2 8.2 0 .5 0 1-.1 1.5 0 .2 0 .5.2.7.2.2.4.2.7.2 4.4-.9 8.1 2.4 8.1 6.6 0 3.7-3 6.8-6.8 6.8h-7.9v-7.6c0-.4-.3-.7-.7-.7-.4 0-.7.3-.7.7v14.2c0 2.5 2.1 4.6 4.6 4.6h4.8c.3 1.9 2 3.4 4 3.4 2.3 0 4.1-1.8 4.1-4.1.1-2.3-1.8-4.1-4-4.1zm-39.8 6.8c-1.5 0-2.7-1.2-2.7-2.7s1.2-2.7 2.7-2.7 2.7 1.2 2.7 2.7-1.2 2.7-2.7 2.7zm16.1-31.3c-.9-.5-1.8-.8-2.8-.8-3.1 0-5.7 2.5-5.7 5.7 0 .7.1 1.3.3 1.9-1.9.7-3.4 2.1-4 4h-1.2c-3 0-5.4-2.4-5.4-5.4 0-3 2.4-5.4 5.4-5.4.4 0 .7 0 1.1.1.2 0 .5 0 .7-.2.2-.2.3-.4.2-.7-.1-.4-.1-.8-.1-1.2 0-3.6 2.9-6.5 6.5-6.5 3.2 0 5.8 2.3 6.4 5.3-.6 1.1-1.1 2.2-1.4 3.2zm23.7 31.3c-1.5 0-2.7-1.2-2.7-2.7s1.2-2.7 2.7-2.7c1.5 0 2.7 1.2 2.7 2.7s-1.3 2.7-2.7 2.7z"/><path class="st2" d="M-247 39.5V20.6c0-.4-.3-.7-.7-.7-.4 0-.7.3-.7.7v18.9c-1.9.3-3.4 2-3.4 4 0 2.3 1.8 4.1 4.1 4.1s4.1-1.8 4.1-4.1c0-2-1.5-3.7-3.4-4zm-.7 6.7c-1.5 0-2.7-1.2-2.7-2.7s1.2-2.7 2.7-2.7 2.7 1.2 2.7 2.7-1.3 2.7-2.7 2.7z"/></g><g class="st1"><path class="st2" d="M-151.1 15.5h-5.3c-.4 0-.7.3-.7.7v3h-4.6c-.4 0-.7.3-.7.7v7.9c0 .4.3.7.7.7h10.6c.4 0 .7-.3.7-.7V16.2c0-.4-.3-.7-.7-.7zm-6.1 11.7h-3.9v-6.4h3.9v6.4zm5.3 0h-3.9V17h3.9v10.2z"/><path class="st2" d="M-133.2 31h-1.2V1.5h1.2c.4 0 .7-.3.7-.7 0-.4-.3-.7-.7-.7h-46.5c-.4 0-.7.3-.7.7 0 .4.3.7.7.7h1.2V31h-1.2c-.4 0-.7.3-.7.7 0 .4.3.7.7.7h17.3l-5.5 14.5c-.1.4 0 .8.4.9h.3c.3 0 .6-.2.7-.5l5.6-15h3.6v9.9c0 .4.3.7.7.7.4 0 .7-.3.7-.7v-9.9h3.6l5.6 15c.1.3.4.5.7.5h.3c.4-.1.6-.6.4-.9l-5.5-14.5h17.3c.4 0 .7-.3.7-.7.3-.3 0-.7-.4-.7zm-43.9-8.4h3.9v4.6h-3.9v-4.6zm41.2 4.6h-3.9V9.5h3.9v17.7zm0-19.2h-4.6c-.4 0-.7.3-.7.7v3.6h-4.6c-.4 0-.7.3-.7.7v14.8c0 .4.3.7.7.7H-135.9V31h-41.2v-2.4H-167.2c.4 0 .7-.3.7-.7v-10c0-.4-.3-.7-.7-.7h-5.3c-.4 0-.7.3-.7.7v3.2h-3.9V1.5h41.2V8zm-5.3 5.8v13.4h-3.9V13.8h3.9zm-30.6 13.4v-8.5h3.9v8.5h-3.9z"/><path class="st2" d="M-166.9 10.8h10.9c.4 0 .7-.3.7-.7 0-.4-.3-.7-.7-.7h-10.9c-.4 0-.7.3-.7.7 0 .4.3.7.7.7zM-173.5 10.8h2.7c.4 0 .7-.3.7-.7 0-.4-.3-.7-.7-.7h-2.7c-.4 0-.7.3-.7.7 0 .4.3.7.7.7zM-155.5 6h5.3c.4 0 .7-.3.7-.7 0-.4-.3-.7-.7-.7h-5.3c-.4 0-.7.3-.7.7 0 .4.3.7.7.7zM-166.6 6h7.2c.4 0 .7-.3.7-.7 0-.4-.3-.7-.7-.7h-7.2c-.4 0-.7.3-.7.7 0 .4.3.7.7.7zM-173.5 6h3c.4 0 .7-.3.7-.7 0-.4-.3-.7-.7-.7h-3c-.4 0-.7.3-.7.7 0 .4.3.7.7.7z"/></g><g class="st1"><path class="st2" d="M-81 6.6h7.2c.4 0 .7-.3.7-.7 0-.4-.3-.7-.7-.7H-81c-.4 0-.7.3-.7.7-.1.4.3.7.7.7z"/><path class="st2" d="M-42.6 19.6c-.1-.2-.3-.2-.5-.2h-3.2V5.9c0-.4-.3-.7-.7-.7h-20.8L-71.4.3c-.2-.2-.5-.3-.7-.3h-13.8c-.4 0-.7.3-.7.7v18.7h-3.2c-.2 0-.4.1-.5.2-.1.2-.2.4-.2.6l2.9 27.1c0 .4.4.7.7.7h17c.4 0 .7-.3.7-.7v-6.6h5.3v6.6c0 .4.3.7.7.7h17c.4 0 .7-.3.7-.7l2.9-27.1c.2-.2.1-.4 0-.6zM-85.1 1.5h12.7l3.6 4.9c.1.2.4.3.6.3h20.5v12.8h-3.4v-5.1c0-.4-.3-.7-.7-.7H-81c-.4 0-.7.3-.7.7v5.1h-3.4v-18zM-52.6 15v4.4h-27.6V15h27.6zm-17.2 24.2h-.7v-5.1c0-.4-.3-.7-.7-.7h-9.5c10.1-7 26.6-6.5 30.1-6.3v6.3h-10.9c-.4 0-.7.3-.7.7v5.1H-69.8zm23.1 7.3h-15.6v-5.9h.7c.4 0 .7-.3.7-.7v-5.1H-50c.4 0 .7-.3.7-.7v-7.8c0-.4-.3-.7-.7-.7-.9-.1-22.1-1.7-33.5 7.9-.2.2-.3.5-.2.8.1.3.4.5.7.5h11v5.1c0 .4.3.7.7.7h.7v5.9h-15.6L-89 20.8h44.9l-2.6 25.7z"/></g><path d="M44.4 39.2h-1.9v-5.4c0-.4-.3-.7-.7-.7h-8.1v-4.7h4.8c.4 0 .7-.3.7-.7v-7.3c0-.4-.3-.7-.7-.7h-4.8v-5.4c0-.4-.3-.7-.7-.7H20.3V8.8h12.6c.4 0 .7-.3.7-.7V.7c0-.4-.3-.7-.7-.7H6.3c-.4 0-.8.3-.8.7V8c0 .4.3.7.7.7h12.6v4.7H6.3c-.4 0-.7.3-.7.7v5.4H.7c-.4 0-.7.3-.7.7v7.3c0 .4.3.7.7.7h4.8V39H3.6c-2 0-3.6 1.6-3.6 3.6v1.5c0 2 1.6 3.6 3.6 3.6h5.3c2 0 3.6-1.6 3.6-3.6v-1.5c0-2-1.6-3.6-3.6-3.6H7V28.4h4.8c.4 0 .7-.3.7-.7v-7.3c0-.4-.3-.7-.7-.7H7V15h25.1v4.7h-4.8c-.4 0-.7.3-.7.7v7.3c0 .4.3.7.7.7h4.8v4.7H24c-.4 0-.7.3-.7.7v5.4h-1.9c-2 0-3.6 1.6-3.6 3.6v1.5c0 2 1.6 3.6 3.6 3.6h5.3c2 0 3.6-1.6 3.6-3.6v-1.5c0-2-1.6-3.6-3.6-3.6h-1.9v-4.7H41v4.7h-1.9c-2 0-3.6 1.6-3.6 3.6v1.5c0 2 1.6 3.6 3.6 3.6h5.3c2 0 3.6-1.6 3.6-3.6v-1.5c0-2-1.6-3.6-3.6-3.6zM8.9 40.7c1.2 0 2.2 1 2.2 2.2v1.5c0 1.2-1 2.2-2.2 2.2H3.6c-1.2 0-2.2-1-2.2-2.2v-1.5c0-1.2 1-2.2 2.2-2.2h5.3zm2.2-19.6V27H1.5v-5.9h9.6zM7 7.3V1.5h25.1v5.9H7zm19.6 33.4c1.2 0 2.2 1 2.2 2.2v1.5c0 1.2-1 2.2-2.2 2.2h-5.3c-1.2 0-2.2-1-2.2-2.2v-1.5c0-1.2 1-2.2 2.2-2.2h5.3zm1.5-13.8V21h9.6v5.9h-9.6zm18.4 17.5c0 1.2-1 2.2-2.2 2.2H39c-1.2 0-2.2-1-2.2-2.2v-1.5c0-1.2 1-2.2 2.2-2.2h5.3c1.2 0 2.2 1 2.2 2.2v1.5z" fill="#1a171b"/><path class="st3" d="M-396-370.1v-29h29z"/></svg>