<?xml version="1.0" encoding="utf-8"?>
<!-- Generator: Adobe Illustrator 24.0.2, SVG Export Plug-In . SVG Version: 6.00 Build 0)  -->
<svg version="1.1" id="service-production" xmlns="http://www.w3.org/2000/svg" xmlns:xlink="http://www.w3.org/1999/xlink" x="0px"
	 y="0px" viewBox="0 0 512 512" style="enable-background:new 0 0 512 512;" xml:space="preserve">
<style type="text/css">
	.st0{fill-rule:evenodd;clip-rule:evenodd;fill:#F4F6FA;}
	.st1{fill-rule:evenodd;clip-rule:evenodd;fill:none;stroke:#000000;stroke-width:15;stroke-miterlimit:10;}
	.st2{fill-rule:evenodd;clip-rule:evenodd;fill:#FFFFFF;stroke:#000000;stroke-width:15;stroke-miterlimit:10;}
	.st3{fill-rule:evenodd;clip-rule:evenodd;fill:none;stroke:#000000;stroke-width:10;stroke-miterlimit:10;}
	.st4{fill-rule:evenodd;clip-rule:evenodd;fill:#F4F6FA;stroke:#000000;stroke-width:10;stroke-miterlimit:10;}
	.st5{fill:none;stroke:#000000;stroke-width:10;stroke-miterlimit:10;}
	.st6{fill:#FFFFFF;stroke:#000000;stroke-width:15;stroke-miterlimit:10;}
	.st7{fill:#FFFFFF;stroke:#000000;stroke-width:10;stroke-miterlimit:10;}
	.st8{fill:none;stroke:#000000;stroke-width:5;stroke-miterlimit:10;}
	.st9{fill-rule:evenodd;clip-rule:evenodd;fill:#F4F6FA;stroke:#000000;stroke-width:5;stroke-miterlimit:10;}
</style>
<g id="pc">
	<path class="st0" d="M351.1,299.9L351.1,299.9c28.8,0,52.4,23.6,52.4,52.4l24.1,56.7c0,7.8-30.5,17-38.2,17h-76.5
		c-7.8,0,9.9-9.2,9.9-17l-24.1-56.7C298.7,323.5,322.3,299.9,351.1,299.9z"/>
	<path class="st1" d="M326,287.9L326,287.9c28.8,0,52.4,23.6,52.4,52.4l24.1,56.7c0,7.8-30.5,17-38.2,17h-76.5
		c-7.8,0,9.9-9.2,9.9-17l-24.1-56.7C273.6,311.5,297.2,287.9,326,287.9z"/>
	<path class="st2" d="M479,330.4H170.2c-7.8,0-14.2-6.4-14.2-14.2V120.7c0-7.8,6.4-14.2,14.2-14.2H479c7.8,0,14.2,6.4,14.2,14.2
		v195.5C493.1,324,486.8,330.4,479,330.4z"/>
	<path class="st3" d="M342.3,289.3h-80.7c-7.8,0-14.2-6.4-14.2-14.2V164.7c0-7.8,6.4-14.2,14.2-14.2h80.7c7.8,0,14.2,6.4,14.2,14.2
		v110.5C356.4,282.9,350.1,289.3,342.3,289.3z"/>
	<polygon class="st4" points="309.7,198.7 289.2,234.3 330.2,234.3 	"/>
	<polygon class="st4" points="288.3,211.4 275.1,234.3 301.5,234.3 	"/>
	<line class="st5" x1="380.5" y1="262.2" x2="449.7" y2="262.2"/>
	<line class="st5" x1="380.8" y1="247.3" x2="450" y2="247.3"/>
	<line class="st5" x1="380.6" y1="275.6" x2="449.8" y2="275.6"/>
	<polyline class="st5" points="408.7,146 394.4,148.8 397.1,163.1 381.6,168.8 	"/>
	<polyline class="st5" points="419.6,179 405.3,181.7 408,196.1 392.5,201.7 	"/>
	<polyline class="st5" points="201.6,144.9 215,150.6 209.2,164 223.2,172.9 	"/>
	<polyline class="st5" points="186,174.9 199.4,180.7 193.6,194.1 207.6,203 	"/>
</g>
<g id="sp">
	<path class="st6" d="M160.4,403.3l-82.8,6.2c-8.6,0-15.6-7-15.6-15.6V234.6c0-8.6,7-15.6,15.6-15.6l82.8-6.2
		c8.6,0,15.6,7,15.6,15.6v159.3C176,396.2,169,403.3,160.4,403.3z"/>
	<path class="st7" d="M147.4,376.2l-55,4.2c-5.7,0-10.4-4.7-10.4-10.4V264.1c0-5.7,4.7-10.4,10.4-10.4l55-4.2
		c5.7,0,10.4,4.7,10.4,10.4v105.9C157.8,371.5,153.1,376.2,147.4,376.2z"/>
	<line class="st8" x1="102.5" y1="343.6" x2="139.9" y2="340.8"/>
	<line class="st8" x1="102.9" y1="333.9" x2="140.3" y2="331.1"/>
	<line class="st8" x1="102.3" y1="352.1" x2="139.7" y2="349.3"/>
	<polygon class="st9" points="124,277.9 115.3,299.2 136.4,297.3 	"/>
	<polygon class="st9" points="112.3,284.5 105.9,300.1 121.3,298.7 	"/>
	<line class="st5" x1="31.9" y1="170.6" x2="58.4" y2="201.8"/>
	<line class="st5" x1="16.9" y1="193" x2="43.4" y2="224.2"/>
</g>
</svg>
