<svg version="1.1" id="レイヤー_1" xmlns="http://www.w3.org/2000/svg" x="0" y="0" viewBox="0 0 512 512" xml:space="preserve"><style>.st1{display:inline;stroke:#fff;stroke-miterlimit:10}.st2{display:none}.st2,.st5{fill:none;stroke:#000;stroke-width:20;stroke-miterlimit:10}</style><path class="st2" d="M171 40.6l116 200.8M369.4 45l107.4 186.1M295 245h173M154 41.6L38 242.4"/><path class="st5" d="M171.1 60.3L297.7 245h11.1L171.6 42 34.4 245h10z"/><path class="st5" d="M292.3 236l5.3 9.3h180.6L341 42.3l-5.4 9.4L462 236z"/><path d="M21 367.4h18v6.6c5.5-7 12-8.1 17.3-8.1 4.9 0 11.3.9 16 5.6 5.3 5.3 5.6 11.9 5.6 16.4v35.3h-18v-28.6c0-3.6-.1-8.3-3-11.1-1.4-1.4-3.6-2.5-6.9-2.5-3.8 0-6.1 1.5-7.5 3-3 3-3.5 7-3.5 10.6v28.6H21v-55.8zM158.7 416.1c-5 5-13.5 9-24.4 9s-19.4-4-24.4-9c-5.6-5.6-8.4-13.6-8.4-20.8s2.8-15.1 8.4-20.8c5-5 13.5-9 24.4-9s19.4 4 24.4 9c5.6 5.6 8.4 13.6 8.4 20.8s-2.7 15.1-8.4 20.8zm-34.5-31.3c-2.6 2.6-4.1 6-4.1 10.5 0 5.1 2 8.4 4.1 10.5 2.3 2.3 5.5 4 10.3 4 4 0 7.4-1.4 10-4s4.1-6 4.1-10.5-1.5-7.9-4.1-10.5-6-4-10.1-4-7.5 1.4-10.2 4zM191.4 332.1h18v42c2.3-2.8 4.6-4.6 6.8-5.8 3.8-2 6.9-2.4 10.9-2.4 4.4 0 10.9.6 15.8 5.6 5.1 5.1 5.5 12 5.5 16.3v35.4h-18v-28.6c0-3.9-.1-8.4-3-11.1-1.6-1.6-4.4-2.5-7-2.5-3.9 0-6.1 1.8-7.1 2.8-3.6 3.5-3.8 8.9-3.8 11.6v27.9h-18v-91.2zM317.5 367.4h18v55.8h-18v-6.8c-4.9 7.5-11.9 8.6-16.5 8.6-8 0-14.8-2-20.9-8.5-5.9-6.3-8.1-13.5-8.1-20.9 0-9.4 3.5-17.4 8.6-22.5 4.9-4.9 11.6-7.6 19.4-7.6 4.8 0 12.4 1.1 17.5 8.1v-6.2zm-22.9 17.7c-1.9 1.9-4.1 5.1-4.1 10.1s2.1 8.3 3.8 10c2.5 2.6 6.4 4.4 10.6 4.4 3.6 0 7-1.5 9.4-3.9 2.4-2.3 4.4-5.8 4.4-10.5 0-4-1.5-7.8-4.1-10.3-2.8-2.6-6.8-3.9-10-3.9-4 .1-7.6 1.7-10 4.1zM403.9 385.1c-4.4-3.6-8.9-4.3-11.8-4.3-5.6 0-9 2.8-10.3 4-2.4 2.4-4.1 6-4.1 10.5 0 4.1 1.5 7.6 3.8 10 2.8 3 6.9 4.5 10.9 4.5 3.1 0 7.4-.9 11.5-4.4v16.3c-4.8 2.6-9.3 3.4-14.3 3.4-9.4 0-16.5-3.4-21.6-8.4-4.3-4.1-8.8-11.1-8.8-21.3 0-9.5 4-17 9.3-22 6.3-5.9 13.6-7.9 21.3-7.9 4.9 0 9.4.9 14.1 3.1v16.5zM482.7 416.1c-5 5-13.5 9-24.4 9s-19.4-4-24.4-9c-5.6-5.6-8.4-13.6-8.4-20.8s2.8-15.1 8.4-20.8c5-5 13.5-9 24.4-9s19.4 4 24.4 9c5.6 5.6 8.4 13.6 8.4 20.8s-2.7 15.1-8.4 20.8zm-34.5-31.3c-2.6 2.6-4.1 6-4.1 10.5 0 5.1 2 8.4 4.1 10.5 2.3 2.3 5.5 4 10.3 4 4 0 7.4-1.4 10-4s4.1-6 4.1-10.5-1.5-7.9-4.1-10.5-6-4-10.1-4-7.5 1.4-10.2 4z"/></svg>