<?xml version="1.0" encoding="utf-8"?>
<!-- Generator: Adobe Illustrator 24.0.2, SVG Export Plug-In . SVG Version: 6.00 Build 0)  -->
<svg version="1.1" id="logo" xmlns="http://www.w3.org/2000/svg" xmlns:xlink="http://www.w3.org/1999/xlink" x="0px" y="0px"
	 viewBox="0 0 512 512" style="enable-background:new 0 0 512 512;" xml:space="preserve">
<style type="text/css">
	.st0{fill:none;stroke:#000000;stroke-width:20;stroke-miterlimit:10;}
</style>
<polygon class="st0" points="171.1,82.8 297.7,267.5 308.8,267.5 171.6,64.4 34.3,267.5 44.3,267.5 "/>
<polygon class="st0" points="292.3,258.5 297.5,267.8 478.2,267.8 341,64.8 335.5,74.1 462,258.5 "/>
<g id="strs">
	<path d="M20.9,389.8h18v6.6c5.5-7,12-8.1,17.3-8.1c4.9,0,11.3,0.9,16,5.6c5.3,5.3,5.6,11.9,5.6,16.4v35.3h-18V417
		c0-3.6-0.1-8.3-3-11.1c-1.4-1.4-3.6-2.5-6.9-2.5c-3.8,0-6.1,1.5-7.5,3c-3,3-3.5,7-3.5,10.6v28.6h-18
		C20.9,445.6,20.9,389.8,20.9,389.8z"/>
	<path d="M158.6,438.5c-5,5-13.5,9-24.4,9s-19.4-4-24.4-9c-5.6-5.6-8.4-13.6-8.4-20.8c0-7.2,2.8-15.1,8.4-20.8c5-5,13.5-9,24.4-9
		s19.4,4,24.4,9c5.6,5.6,8.4,13.6,8.4,20.8C167,425,164.3,432.8,158.6,438.5z M124.1,407.3c-2.6,2.6-4.1,6-4.1,10.5
		c0,5.1,2,8.4,4.1,10.5c2.3,2.3,5.5,4,10.3,4c4,0,7.4-1.4,10-4s4.1-6,4.1-10.5s-1.5-7.9-4.1-10.5s-6-4-10.1-4
		S126.8,404.7,124.1,407.3z"/>
	<path d="M191.3,354.5h18v42c2.3-2.8,4.6-4.6,6.8-5.8c3.8-2,6.9-2.4,10.9-2.4c4.4,0,10.9,0.6,15.8,5.6c5.1,5.1,5.5,12,5.5,16.3v35.4
		h-18V417c0-3.9-0.1-8.4-3-11.1c-1.6-1.6-4.4-2.5-7-2.5c-3.9,0-6.1,1.8-7.1,2.8c-3.6,3.5-3.8,8.9-3.8,11.6v27.9h-18L191.3,354.5
		L191.3,354.5z"/>
	<path d="M317.5,389.8h18v55.8h-18v-6.8c-4.9,7.5-11.9,8.6-16.5,8.6c-8,0-14.8-2-20.9-8.5c-5.9-6.3-8.1-13.5-8.1-20.9
		c0-9.4,3.5-17.4,8.6-22.5c4.9-4.9,11.6-7.6,19.4-7.6c4.8,0,12.4,1.1,17.5,8.1V389.8z M294.5,407.5c-1.9,1.9-4.1,5.1-4.1,10.1
		s2.1,8.3,3.8,10c2.5,2.6,6.4,4.4,10.6,4.4c3.6,0,7-1.5,9.4-3.9c2.4-2.3,4.4-5.8,4.4-10.5c0-4-1.5-7.8-4.1-10.3
		c-2.8-2.6-6.8-3.9-10-3.9C300.5,403.5,297,405.2,294.5,407.5z"/>
	<path d="M403.8,407.5c-4.4-3.6-8.9-4.3-11.8-4.3c-5.6,0-9,2.8-10.3,4c-2.4,2.4-4.1,6-4.1,10.5c0,4.1,1.5,7.6,3.8,10
		c2.8,3,6.9,4.5,10.9,4.5c3.1,0,7.4-0.9,11.5-4.4v16.3c-4.8,2.6-9.3,3.4-14.3,3.4c-9.4,0-16.5-3.4-21.6-8.4
		c-4.3-4.1-8.8-11.1-8.8-21.3c0-9.5,4-17,9.3-22c6.3-5.9,13.6-7.9,21.3-7.9c4.9,0,9.4,0.9,14.1,3.1V407.5z"/>
	<path d="M482.7,438.5c-5,5-13.5,9-24.4,9s-19.4-4-24.4-9c-5.6-5.6-8.4-13.6-8.4-20.8c0-7.2,2.8-15.1,8.4-20.8c5-5,13.5-9,24.4-9
		s19.4,4,24.4,9c5.6,5.6,8.4,13.6,8.4,20.8C491,425,488.3,432.8,482.7,438.5z M448.2,407.3c-2.6,2.6-4.1,6-4.1,10.5
		c0,5.1,2,8.4,4.1,10.5c2.3,2.3,5.5,4,10.3,4c4,0,7.4-1.4,10-4s4.1-6,4.1-10.5s-1.5-7.9-4.1-10.5s-6-4-10.1-4
		S450.8,404.7,448.2,407.3z"/>
</g>
</svg>
