<svg xmlns="http://www.w3.org/2000/svg" viewBox="0 0 512 512"><style>.st0{display:none}.st2{display:inline}.st3{fill:#fff}.st4{fill:none;stroke:#000;stroke-width:10;stroke-miterlimit:10}.st5{display:inline;fill:#f4f6fa}.st8{fill:#bbffa5}.st10,.st11,.st8,.st9{fill-rule:evenodd;clip-rule:evenodd}.st9{fill:none;stroke:#000;stroke-width:10;stroke-miterlimit:10}.st10,.st11{fill:#e88960}.st11{fill:#efea4d}.st12{fill:#f4f6fa}.st23{display:inline;fill-rule:evenodd;clip-rule:evenodd;fill:none;stroke:#000;stroke-width:10;stroke-miterlimit:10}</style><g id="レイヤー_1" class="st0"><path d="M177 346.9c-15-6.8-32.1-10.4-50-10.4s-35 3.6-50 10.4V149.5c14.5-7.5 32.1-11.5 50-11.5s35.5 4.1 50 11.5v197.4z" fill="#fff"/><path class="st2" d="M127 143c16 0 31.8 3.4 45 9.6v186.7c-13.8-5.2-29.1-7.9-45-7.9-15.9 0-31.2 2.7-45 7.9V152.6c13.2-6.2 29-9.6 45-9.6m0-10c-19.4 0-38.8 4.5-55 13.6V355c16.2-9 35.6-13.6 55-13.6s38.8 4.5 55 13.6V146.6c-16.2-9.1-35.6-13.6-55-13.6z"/><g class="st2"><path class="st3" d="M501.9 142.4H147.8C144.9 103 115.5 72 79.6 72c-37.8 0-68.4 34.3-68.4 76.6 0 1.6.1 3.2.1 4.8v197c0 20.5 7.5 39.1 19.9 53.5 3.2 4 6.8 7.5 10.9 10.5 14 11.1 31.7 17.8 50.9 17.8h408.7c2.8 0 5-2.2 5-5V147.4c.2-2.8-2.1-5-4.8-5z"/></g><g class="st2"><path class="st4" d="M501.9 142.4H147.8C144.9 103 115.5 72 79.6 72c-37.8 0-68.4 34.3-68.4 76.6 0 1.6.1 3.2.1 4.8v197c0 20.5 7.5 39.1 19.9 53.5 3.2 4 6.8 7.5 10.9 10.5 14 11.1 31.7 17.8 50.9 17.8h408.7c2.8 0 5-2.2 5-5V147.4c.2-2.8-2.1-5-4.8-5z"/></g><path class="st5" d="M497.9 433.7H79.8c-26.3 0-47.8-21.5-47.8-47.8V168.1c0-4.7 3.9-8.6 8.6-8.6H498c4.7 0 8.6 3.9 8.6 8.6v257c-.1 4.7-3.9 8.6-8.7 8.6z"/><path d="M484.9 420.5H65.3c-26.3 0-47.8-21.5-47.8-47.8V154.1c0-4.7 3.9-8.6 8.6-8.6h458.8c4.7 0 8.6 3.9 8.6 8.6v257.8c0 4.7-3.9 8.6-8.6 8.6z" fill="none" stroke="#000" stroke-width="15" stroke-miterlimit="10"/><path d="M17.5 371.1h0c0-29.9 29.3-54.3 65-54.3h0c33.1 0 60.6 20.9 64.5 47.7V153.3c0-29.9-29.3-54.3-65-54.3h0c-35.7 0-65 24.5-65 54.3v217.6c0 22.1 16.3 41.1 39.3 49.2-22.7-8.1-38.8-27.1-38.8-49z" fill="#fff" stroke="#000" stroke-width="15" stroke-miterlimit="10"/><path class="st5" d="M29.4 331.7c0-24.1 23.6-43.8 52.5-43.8 26.7 0 48.9 16.9 52.1 38.5V156.2c0-24.1-23.6-43.8-52.5-43.8S29 132.1 29 156.2c0 0 .4 193.2.4 175.5z"/><g id="レイヤー_4" class="st2"><path class="st4" d="M178.4 248.7h99.4M178.8 221.1h99.4M178.8 276.3h99.4"/><path class="st8" d="M195.1 313.9h85.6v63.5h-85.6z"/><path class="st9" d="M185.3 303.9h85.6v63.5h-85.6z"/><path class="st10" d="M407.6 286.9l-82.2 47.5 82.2 47.5z"/><path class="st9" d="M393.3 283.4l-82.2 47.4 82.2 47.5z"/><circle class="st11" cx="399.7" cy="266.9" r="46.2"/><circle class="st9" cx="388.9" cy="260.4" r="46.2"/></g></g><g id="レイヤー_5"><path class="st12" d="M497.7 411.5H79.5c-26.3 0-47.8-21.5-47.8-47.8V145.9c0-4.7 3.9-8.6 8.6-8.6h457.4c4.7 0 8.6 3.9 8.6 8.6v257c0 4.7-3.9 8.6-8.6 8.6z"/><linearGradient id="SVGID_1_" gradientUnits="userSpaceOnUse" x1="9.749" y1="260.755" x2="500.749" y2="260.755"><stop offset="0" stop-color="#fff"/><stop offset="1" stop-color="#765edd"/></linearGradient><path d="M484.7 398.3H65c-26.3 0-47.8-21.5-47.8-47.8V131.8c0-4.7 3.9-8.6 8.6-8.6h458.8c4.7 0 8.6 3.9 8.6 8.6v257.8c0 4.8-3.8 8.7-8.5 8.7z" fill="none" stroke="url(#SVGID_1_)" stroke-width="15" stroke-miterlimit="10"/><linearGradient id="SVGID_2_" gradientUnits="userSpaceOnUse" x1="9.249" y1="237.105" x2="154.249" y2="237.105"><stop offset="0" stop-color="#fff"/><stop offset="1" stop-color="#765edd"/></linearGradient><path d="M17.2 348.9h0c0-29.9 29.3-54.3 65-54.3h0c33.1 0 60.6 20.9 64.5 47.7V131.1c0-29.9-29.3-54.3-65-54.3h0c-35.7 0-65 24.5-65 54.3v217.6c0 22.1 16.3 41.1 39.3 49.2-22.7-8.2-38.8-27.1-38.8-49z" fill="#fff" stroke="url(#SVGID_2_)" stroke-width="15" stroke-miterlimit="10"/><path class="st12" d="M29.2 309.5c0-24.1 23.6-43.8 52.5-43.8 26.7 0 48.9 16.9 52.1 38.5V134c0-24.1-23.6-43.8-52.5-43.8S28.8 109.9 28.8 134c-.1 0 .4 193.1.4 175.5z"/><linearGradient id="SVGID_3_" gradientUnits="userSpaceOnUse" x1="178.13" y1="226.418" x2="277.502" y2="226.418"><stop offset="0" stop-color="#fff"/><stop offset="1" stop-color="#765edd"/></linearGradient><path fill="none" stroke="url(#SVGID_3_)" stroke-width="10" stroke-miterlimit="10" d="M178.1 226.4h99.4"/><linearGradient id="SVGID_4_" gradientUnits="userSpaceOnUse" x1="178.536" y1="198.814" x2="277.908" y2="198.814"><stop offset="0" stop-color="#fff"/><stop offset="1" stop-color="#765edd"/></linearGradient><path fill="none" stroke="url(#SVGID_4_)" stroke-width="10" stroke-miterlimit="10" d="M178.5 198.8h99.4"/><linearGradient id="SVGID_5_" gradientUnits="userSpaceOnUse" x1="178.536" y1="254.021" x2="277.908" y2="254.021"><stop offset="0" stop-color="#fff"/><stop offset="1" stop-color="#765edd"/></linearGradient><path fill="none" stroke="url(#SVGID_5_)" stroke-width="10" stroke-miterlimit="10" d="M178.5 254h99.4"/><path class="st8" d="M194.8 291.7h85.6v63.5h-85.6z"/><linearGradient id="SVGID_6_" gradientUnits="userSpaceOnUse" x1="180.031" y1="313.368" x2="275.601" y2="313.368"><stop offset="0" stop-color="#fff"/><stop offset="1" stop-color="#765edd"/></linearGradient><path fill-rule="evenodd" clip-rule="evenodd" fill="none" stroke="url(#SVGID_6_)" stroke-width="10" stroke-miterlimit="10" d="M185 281.6h85.6v63.5H185z"/><path class="st10" d="M407.4 264.7l-82.2 47.5 82.2 47.4z"/><linearGradient id="SVGID_7_" gradientUnits="userSpaceOnUse" x1="300.837" y1="308.589" x2="398.072" y2="308.589"><stop offset="0" stop-color="#fff"/><stop offset="1" stop-color="#765edd"/></linearGradient><path fill-rule="evenodd" clip-rule="evenodd" fill="none" stroke="url(#SVGID_7_)" stroke-width="10" stroke-miterlimit="10" d="M393.1 261.1l-82.3 47.5 82.3 47.5z"/><circle class="st11" cx="399.4" cy="244.7" r="46.2"/><linearGradient id="SVGID_8_" gradientUnits="userSpaceOnUse" x1="337.37" y1="238.149" x2="439.842" y2="238.149"><stop offset="0" stop-color="#fff"/><stop offset="1" stop-color="#765edd"/></linearGradient><circle cx="388.6" cy="238.1" r="46.2" fill-rule="evenodd" clip-rule="evenodd" fill="none" stroke="url(#SVGID_8_)" stroke-width="10" stroke-miterlimit="10"/></g><g id="レイヤー_3" class="st0"><g class="st2"><path class="st3" d="M101.4 464.5c-42.3 0-76.8-34.4-76.8-76.8v-203h485.5v279.8H101.4z"/><path d="M505.1 189.7v269.8H101.4c-39.6 0-71.8-32.2-71.8-71.8v-198h475.5m5-10H24.6c-2.8 0-5 2.2-5 5v203.1c0 45.2 36.6 81.8 81.8 81.8h408.7c2.8 0 5-2.2 5-5V184.7c0-2.8-2.3-5-5-5z"/></g><g class="st2"><ellipse class="st3" cx="86.6" cy="392.9" rx="63.4" ry="71.6"/><path d="M86.6 326.3c32.2 0 58.4 29.9 58.4 66.6s-26.2 66.6-58.4 66.6-58.4-29.9-58.4-66.6 26.2-66.6 58.4-66.6m0-10c-37.8 0-68.4 34.3-68.4 76.6s30.6 76.6 68.4 76.6 68.4-34.3 68.4-76.6-30.6-76.6-68.4-76.6z"/></g><g class="st2"><path class="st3" d="M84.2 374.5h109v84.8h-109z"/></g><g class="st2"><ellipse class="st3" cx="87.8" cy="185.9" rx="63.4" ry="71.6"/><path d="M87.8 119.3c32.2 0 58.4 29.9 58.4 66.6s-26.2 66.6-58.4 66.6-58.4-29.9-58.4-66.6 26.2-66.6 58.4-66.6m0-10c-37.8 0-68.4 34.3-68.4 76.6s30.6 76.6 68.4 76.6 68.4-34.3 68.4-76.6-30.6-76.6-68.4-76.6z"/></g><g class="st2"><path class="st3" d="M29.2 190.5h140.6v88.3H29.2z"/></g><path fill="#020202" stroke="#000" stroke-width="10" stroke-miterlimit="10" d="M151.6 188l-.4 186.3"/><g class="st2"><path class="st4" d="M186.6 286H286"/></g><g class="st2"><path class="st4" d="M187 258.4h99.4"/></g><g class="st2"><path class="st4" d="M187 313.6h99.4"/></g><path fill-rule="evenodd" clip-rule="evenodd" fill="#bbffa5" d="M203.3 351.2h85.6v63.5h-85.6z"/><path class="st23" d="M193.5 341.2h85.6v63.5h-85.6z"/><path fill-rule="evenodd" clip-rule="evenodd" fill="#e88960" d="M415.9 324.2l-82.3 47.5 82.3 47.5z"/><path class="st23" d="M401.5 320.7l-82.2 47.4 82.2 47.5z"/><circle cx="407.9" cy="304.2" r="46.2" fill-rule="evenodd" clip-rule="evenodd" fill="#efea4d"/><circle class="st23" cx="397.1" cy="297.7" r="46.2"/></g></svg>